<?xml version="1.0" encoding="utf-8"?>
<!-- Generator: Adobe Illustrator 16.0.3, SVG Export Plug-In . SVG Version: 6.00 Build 0)  -->
<!DOCTYPE svg PUBLIC "-//W3C//DTD SVG 1.1//EN" "http://www.w3.org/Graphics/SVG/1.1/DTD/svg11.dtd">
<svg version="1.1" id="Layer_1" xmlns="http://www.w3.org/2000/svg" xmlns:xlink="http://www.w3.org/1999/xlink" x="0px" y="0px"
	 width="532.136px" height="225.982px" viewBox="0 0 532.136 225.982" enable-background="new 0 0 532.136 225.982"
	 xml:space="preserve">
<g id="Layer_1_1_" display="none">
	
		<image display="inline" overflow="visible" enable-background="new    " width="1920" height="1080" xlink:href="8CCB2E99.jpeg"  transform="matrix(1 0 0 1 -1591.79 -417.4729)">
	</image>
</g>
<polygon fill="none" stroke="#000000" stroke-width="6" stroke-miterlimit="10" points="-606.457,100.861 -663.79,93.194 
	-564.997,21.333 -503.04,29.527 "/>
<path fill="none" stroke="#000000" stroke-width="6" stroke-miterlimit="10" d="M-567.708,23.306
	c-34.427,16.213-75.748,12.888-75.748,12.888l-62.413,47.833l3.33,56.25"/>
<line fill="none" stroke="#000000" stroke-width="6" stroke-miterlimit="10" x1="-604.697" y1="99.527" x2="-595.79" y2="219.861"/>
<polyline fill="none" stroke="#000000" stroke-width="6" stroke-miterlimit="10" points="-597.619,217.646 -489.79,148.861 
	-500.79,29.527 "/>
<polygon fill="none" stroke="#000000" stroke-width="6" stroke-miterlimit="10" points="-583.628,193.086 -500.187,139.436 
	-507.814,46.947 -592.229,101.332 "/>
<polyline fill="none" stroke="#000000" stroke-width="6" stroke-miterlimit="10" points="-663.79,93.194 -656.563,194.844 
	-597.619,217.646 "/>
<path fill="#FFFFFF" d="M-543.124,99.527"/>
<g>
	<path fill="#FFFFFF" d="M-510.792,111.021l-0.054-0.155c-0.534-1.51-1.876-2.446-3.502-2.436c-0.788,0.004-1.615,0.23-2.389,0.655
		c-2.417,1.329-3.689,4.271-2.849,6.549c1.295,3.505,0.296,6.769-3.371,11.209c-3.677,4.302-9.956,8.931-17.641,13.038
		c-7.584,4.056-14.474,6.495-19.432,6.912c-0.463,0.029-0.909,0.046-1.341,0.048c-4.1,0.024-6.458-1.208-7.881-4.108
		c-0.632-1.354-2.003-2.194-3.576-2.186c-0.75,0.004-1.504,0.204-2.184,0.578c-2.185,1.203-3.141,3.861-2.146,5.918
		c2.645,5.47,7.874,8.415,14.76,8.375c0.678-0.005,1.376-0.039,2.065-0.099c6.426-0.531,14.113-3.128,22.938-7.775
		c9.04-4.76,16.041-9.938,20.729-15.362C-510.616,125.447-508.423,117.735-510.792,111.021z"/>
	<path fill="#FFFFFF" stroke="#FFFFFF" stroke-width="4" stroke-miterlimit="10" d="M-552.353,126.809
		c-1.159,0.364-2.15-0.222-2.313-1.375l-3.814-27.012c-0.18-1.275,0.605-2.518,1.832-2.89c1.15-0.351,2.198,0.333,2.368,1.611
		l3.61,27.024C-550.517,125.328-551.269,126.465-552.353,126.809z M-536.633,119.262c-0.991,0.347-2.035-0.198-2.198-1.352
		l-3.821-26.984c-0.182-1.275,0.658-2.563,1.708-2.914c1.198-0.401,2.227,0.259,2.397,1.533l3.624,27.011
		C-534.767,117.709-535.501,118.869-536.633,119.262z"/>
</g>
<path fill="none" stroke="#000000" stroke-width="6" stroke-miterlimit="10" d="M-657.921,182.135c0,0-25.203-32.607-44.338-42.243
	c-1.569-11.031-3.611-53.855-3.611-53.855l42.08,7.158L-657.921,182.135z"/>
<polygon fill="none" stroke="#000000" stroke-width="6" stroke-miterlimit="10" points="-469.807,155.42 -572.275,224.527 
	-521.041,240.861 -420.79,166.861 "/>
<g>
	<path d="M-538.674,221.983l76.427-55.973l-8.734-1.822l-75.226,55.092C-543.689,220.146-541.178,221.047-538.674,221.983z"/>
	<path d="M-524.982,230.516l77.331-59.985l-8.52-1.779l-75.758,58.769C-529.606,228.496-527.291,229.497-524.982,230.516z"/>
</g>
<g>
	<path d="M-420.547,75.726c-1.475-5.318-4.481-8.746-8.464-9.654c-0.659-0.15-1.339-0.229-2.021-0.229
		c-1.969,0-3.93,0.662-5.798,1.836c0.05,2.586,0.113,5.173,0.185,7.758c1.905-2.312,3.935-3.594,5.613-3.594
		c0.233,0,0.464,0.025,0.688,0.076c1.707,0.391,3.171,2.36,4.017,5.408c1.021,3.68,0.986,8.515-0.097,13.264
		c-2.141,9.393-7.345,15.204-10.938,15.204c-0.233,0-0.464-0.023-0.687-0.074c-1.707-0.391-3.171-2.36-4.017-5.408
		c-0.514-1.853-0.759-3.995-0.739-6.272c-0.074-0.23-0.126-0.479-0.126-0.764c-0.004-6.676,0.333-13.334,0.449-19.995
		c-2.344,3.334-4.235,7.599-5.337,12.435c-1.316,5.771-1.326,11.525-0.028,16.201c1.475,5.317,4.481,8.746,8.464,9.653
		c0.659,0.15,1.339,0.227,2.021,0.227c7.103,0,14.163-8.354,16.788-19.87C-419.259,86.156-419.249,80.402-420.547,75.726z"/>
</g>
<g>
	<path d="M-377.752,25.158h-1.288c-3.51,1.236-3.893,4.441-3.893,5.774v0.492c0.161,10.479,0.161,59.942,0,70.558v20.989
		c0,2.87,1.352,3.938,4.987,3.938c0.726,0,1.547-0.045,2.513-0.137c21.384-1.993,32.575-17.759,34.216-48.2
		c0.907-15.796-1.664-37.138-19.067-49.135C-365.399,25.9-372.605,25.158-377.752,25.158z M-348.36,80.102
		c0,13.213-5.481,38.847-26.224,41.289l-1.018,0.118l-0.025-0.986c-0.224-8.751-0.139-20.307-0.063-30.498
		c0.032-4.432,0.063-8.53,0.063-11.899c0-6.509,0.79-38.75,1.127-45.998l0.039-0.855h2.015
		C-350.707,31.27-348.36,65.419-348.36,80.102z"/>
	<path d="M-310.774,123.984c12.051,0,18.138-1.313,18.611-2.246c-0.156-1.657-0.987-2.657-4.791-2.657
		c-1.454,0-3.146,0.135-5.105,0.291c-2.474,0.197-5.277,0.42-8.321,0.42c-4.615,0-7.456-0.043-8.443-0.127l-0.861-0.074
		l0.508-33.861l16.888-1.946c3.431-0.395,5.519-2.255,5.45-3.361c-0.047-0.772-1.45-1.272-3.571-1.272h-0.75l-18.331,2.087
		l-0.842-42.921h20.244c2.439,0,5.984-1.046,5.984-2.687c0-0.053,0.002-0.096-0.004-0.136l-0.083-0.136
		c-0.436-0.542-2.87-1.883-3.492-1.919h-25.399c-2.371,0-4.697,1.696-4.697,3.427l1.762,85.904
		C-324.856,123.288-319.567,123.984-310.774,123.984z"/>
	<path d="M-276.207,126.096c1.894,0,4.77-1.013,4.935-3.796l4.824-84.501c-0.002-0.068,0.031-0.484,0.07-0.943
		c0.041-0.491,0.089-1.037,0.089-1.229c0-3.553,0-4.292-3.733-4.292c-3.138,0-3.526,0.056-4.385,1.907l-4.334,91.5
		C-278.74,125.802-277.148,126.096-276.207,126.096z"/>
	<path d="M-208.6,25.652c-2.856,0-4.217,0.586-4.217,3.921l-0.021,0.192c-2.329,10.235-4.812,21.94-7.211,33.263
		c-2.934,13.826-5.964,28.123-8.868,40.498l-1.029,4.382l-14.434-80.369c-0.39-0.457-2.064-1.654-2.512-1.827l-0.234-0.131
		c-0.049-0.037-0.295-0.13-0.843-0.13c-1.668,0-3.982,0.754-4.932,1.274c3.453,14.199,6.076,28.977,8.612,43.271
		c3.06,17.238,6.224,35.063,10.846,51.827c0.384,0.893,1.354,0.992,3.295,0.992c2.238,0,3.258-0.16,4.097-1.74l6.246-31.628
		c0.727-3.344,1.436-6.685,2.146-10.033c3.661-17.232,7.446-35.054,13.199-52.105C-205.276,25.912-206.317,25.652-208.6,25.652z"/>
	<path d="M-194.847,126.096c1.894,0,4.77-1.013,4.936-3.796l4.822-84.501c-0.001-0.068,0.031-0.484,0.071-0.943
		c0.041-0.491,0.089-1.037,0.089-1.229c0-3.553,0-4.292-3.733-4.292c-3.137,0-3.525,0.056-4.386,1.907l-4.333,91.5
		C-197.38,125.802-195.788,126.096-194.847,126.096z"/>
	<path d="M-353.38,141.239c-0.368,0-1.486,0-1.486,2.598c0,6.251,0.262,12.415,0.537,18.942c0.296,6.953,0.6,14.143,0.6,21.904v5.58
		l-1.021-0.101c-2.101-0.202-5.704-0.261-9.52-0.323c-4.345-0.072-8.839-0.146-11.668-0.441l-0.827-0.085l-0.145-47.211
		c-0.711-0.431-3.411-0.864-4.189-0.864c-2.365,0-2.765,1.003-2.765,3.253l1.703,77.549c0.235,0.874,1.646,1.396,2.91,1.396
		c0.737,0,2.272-0.409,2.624-0.74v-28.98l0.824-0.091c7.109-0.782,14.093-0.595,20.738,0.556l0.676,0.113l0.084,0.657
		c1.235,9.612,1.091,19.975,0.866,27.007c0.379,0.684,1.506,1.991,1.994,2.133h0.624c2.115,0,3.902-1.139,3.902-2.486l-1.846-78.347
		C-349.005,141.865-351.595,141.239-353.38,141.239z"/>
	<path d="M-307.823,221.653c-1.28,0-2.774,0.119-4.504,0.255c-2.188,0.176-4.669,0.373-7.365,0.373
		c-4.083,0-6.598-0.038-7.475-0.113l-0.859-0.074l0.45-30.124l15.023-1.73c2.924-0.337,4.78-1.945,4.724-2.863
		c-0.031-0.511-0.987-1.025-3.051-1.025h-0.656l-16.316,1.854l-0.749-38.165h18.007c2.063,0,5.183-0.905,5.183-2.27
		c0-0.042,0.001-0.077-0.002-0.11l-0.113-0.219c0.028,0.107,0.073,0.168,0.073,0.168c-0.35-0.455-2.469-1.626-3.022-1.673h-22.446
		c-2.042,0-4.044,1.447-4.044,2.925l1.555,75.875c1.123,0.454,5.776,1.044,13.37,1.044c10.266,0,15.671-1.094,16.329-1.896
		C-303.854,222.439-304.581,221.653-307.823,221.653z"/>
	<path d="M-280.745,140.802h-1.421c-5.961,0-7.23,0.142-7.458,4.178c-0.167,4.813-0.346,9.65-0.524,14.498
		c-0.72,19.502-1.465,39.667-1.465,59.396v8.805c0.739,0.632,1.955,1.002,3.335,1.002c0.875,0,1.477-0.154,1.787-0.461
		c0.456-0.446,0.438-1.391,0.418-2.388c-0.004-0.208-0.009-0.418-0.009-0.624c0.136-8.832,0.826-32.718,0.996-34.561
		c0.016-1.128,0.577-5.458,0.887-6.529l0.19-0.656h2.979c10.155,0,11.157,9.442,11.587,13.479
		c0.464,6.043,1.544,20.274,1.702,23.928c0.376,0.764,1.468,0.822,3.059,0.822h0.142c3.193,0,3.193-0.824,3.193-1.179v-0.876
		c-0.003-0.273-0.242-1.869-0.416-3.034c-0.299-1.976-0.438-2.944-0.438-3.3c-0.162-1.684-0.207-3.905-0.253-6.259
		c-0.151-7.602-0.358-18.011-5.032-22.719l-0.084-0.096c-0.489-0.66-3.644-3.521-4.372-4.083l-1.098-0.846l1.233-0.646
		c10.089-5.286,11.597-15.666,11.597-21.385v-1.201C-260.21,146.794-268.27,140.802-280.745,140.802z M-281.456,177.5
		c-2.296,0-2.777-1.021-2.777-1.88c0-4.647,0.26-8.937,0.513-13.085c0.286-4.704,0.557-9.146,0.482-14.099
		c0-2.283,1.761-3.75,4.483-3.75c8.354,0,12.159,6.521,12.159,12.583C-266.596,163.224-270.872,177.5-281.456,177.5z"/>
	<path d="M-229.888,142.222h-11.907c-2.484-0.109-4.478-0.162-6.135-0.162c-7.667,0-7.79,0.899-7.995,3.566
		c0.142,0.368,1.093,0.911,5.471,0.911c1.62,0,3.662-0.063,6.621-0.212l0.939-0.047l2.878,69.955
		c0.371,0.339,1.993,0.757,2.77,0.757c0.771,0,2.373-0.411,2.762-0.749l-2.731-70.136h12.905c0.912,0,1.913-0.827,1.913-1.179
		C-222.397,142.737-226.672,142.333-229.888,142.222z"/>
	<path d="M-181.522,218.785c-2.223,0-4.692,0.361-7.08,0.709c-2.398,0.35-4.879,0.711-7.136,0.711h-1.148l16.691-75.729
		c-0.176-0.933-0.45-1.379-2.464-1.379c-4.563,0-9.088,0.054-13.465,0.105c-4.532,0.054-9.22,0.11-14.113,0.11
		c-1.304,0-2.274,0.351-2.887,1.041c-0.537,0.604-0.638,1.302-0.601,1.526c0.103,0.598,1.574,1.207,4.626,1.207h22.081l-0.284,1.112
		c-2.734,10.716-4.801,21.406-6.799,31.743c-2.223,11.498-4.323,22.357-7.275,33.363c-0.179,0.616-0.466,1.396-0.798,2.299
		c-0.73,1.98-1.731,4.693-1.731,6.32v0.438c0.361,1.277,2.221,2.38,4.045,2.38c2.642,0,4.627-0.323,7.142-0.733
		c1.301-0.214,2.775-0.453,4.534-0.68c0.473-0.063,1.164-0.107,2.039-0.167c2.527-0.166,9.237-0.604,9.237-2.438
		C-176.908,218.84-181.05,218.785-181.522,218.785z"/>
</g>
<path fill="none" stroke="#000000" stroke-width="6" stroke-miterlimit="10" d="M-492.304,128.418
	c18.492,0.037,29.716,18.998,50.667,14.664c19.809-4.097,14.89-26.085,13.333-41.331"/>
<path fill="none" stroke="#000000" stroke-width="6" stroke-miterlimit="10" d="M-446.292,93.194
	c0.699-7.383,1.306-25.188,2.274-32.666c0.274-2.122,1.265-6.175,2.874-7.668c1.496-1.387,8.875-4.58,6.468,17.316"/>
<path fill="none" stroke="#000000" stroke-width="6" stroke-miterlimit="10" d="M-433.719,65.027"/>
<polyline fill="none" stroke="#000000" stroke-width="6" stroke-miterlimit="10" points="-431.311,68.501 -451.017,78.988 
	-449.726,92.126 -431.311,83.626 "/>
<line fill="none" stroke="#000000" stroke-width="6" stroke-miterlimit="10" x1="-444.531" y1="101.751" x2="-431.281" y2="94.626"/>
<path fill="#EA3C5E" d="M302.318,52.491"/>
<g>
	<path fill="#9ECBA5" d="M222.409,132.205l-1.72-18.653c5.79,0.955,10.993,3.831,16.44,6.849c7.249,4.013,14.696,8.136,24.054,8.136
		c2.168,0,4.438-0.222,6.831-0.716c20.491-4.238,18.042-24.785,16.254-39.788c-0.065-0.549-0.125-1.076-0.188-1.612
		c1.814-1.883,6.19-7.885,5.381-21.428l-0.004,0.014c-0.013-2.667-0.328-5.201-0.961-7.479c-1.476-5.318-4.48-8.746-8.463-9.654
		c-0.66-0.148-1.341-0.227-2.021-0.227c-0.09,0-0.18,0.008-0.271,0.011c0.526-9.28-0.979-14.536-4.65-16.384
		c-2.647-1.333-5.604-0.319-7.229,1.188c-2.853,2.646-3.72,8.791-3.81,9.482c-0.429,3.308-0.778,8.42-1.102,13.892l-6.104,3.248
		l3.461,18.614l1.945-0.898c0.052,2.459,0.356,4.805,0.944,6.918c1.475,5.317,4.481,8.746,8.466,9.653
		c0.657,0.15,1.338,0.229,2.02,0.229c2.357,0,4.705-0.938,6.895-2.589c1.842,16.429,1.631,28.162-11.773,30.936
		c-10.551,2.184-18.425-2.177-26.763-6.792c-6.127-3.394-12.438-6.883-19.912-7.736l-8.856-96.075l2.852-1.967L143.252,0
		l-3.442,2.504c-33.225,15.539-73.576,12.53-73.982,12.498l-1.149-0.092L0.242,64.292L0,64.251l0.178,3.728
		c0.072,1.504,1.54,32.106,2.946,47.766l0.386,6.509l0.322-0.019l0.203,1.431l1.4,0.705c17.969,9.047,42.147,39.901,43.26,41.33
		l0.928,13.054l60.719,23.489l0.146-0.378l2.368-0.176l0.182,0.285l0.529-0.34l2.679-0.196l-0.106-1.442L222.409,132.205z
		 M268.001,42.711c0.33-2.552,1.33-5.289,1.924-5.84c0.131-0.105,0.419-0.228,0.465-0.243c0.023,0.016,2.26,1.737,1.143,13.573
		l-4.367,2.324C267.417,48.632,267.694,45.087,268.001,42.711z M271.681,87.596c-0.232,0-0.465-0.025-0.688-0.076
		c-1.08-0.246-2.063-1.13-2.854-2.518l11.042-5.938l-2.843-5.284l-9.936,5.342l-1.434-4.972l13.586-6.938l-2.823-5.973
		l-12.546,6.727l-1.795-6.227l16.404-8.077c0.07-0.004,0.146-0.02,0.216-0.02c0.231,0,0.464,0.023,0.688,0.074
		c1.707,0.391,3.17,2.36,4.016,5.408C289.462,79.241,275.274,87.596,271.681,87.596z M144.843,6.263l53.046,7.016l-96.051,66.253
		l-48.762-6.52L144.843,6.263z M66.514,21.062c5.649,0.34,30.043,1.258,55.804-5.834L44.511,71.823L8.314,65.666L66.514,21.062z
		 M9.562,119.763c-0.149-1.264-0.302-2.785-0.456-4.499L6.513,71.445l31.217,5.31l-0.299,0.219l4.991,0.667l5.088,77.103
		C39.07,144.735,23.223,127.276,9.562,119.763z M55.338,174.53l-6.831-96.077l53.146,7.107l8.145,110.037L55.338,174.53z
		 M107.474,82.933l98.129-67.688l10.496,113.866l-100.463,64.086L107.474,82.933z"/>
	<path fill="#9ECBA5" d="M201.23,28.745l-84.415,54.384l8.601,91.754l83.441-53.648L201.23,28.745z M167.465,67.914
		c0.438-0.146,0.881-0.221,1.319-0.221c1.91,0,3.431,1.393,3.696,3.387l3.623,27.008c0.284,2.107-0.993,4.152-3.037,4.861
		c-0.404,0.142-0.826,0.214-1.252,0.214c-1.816,0-3.322-1.335-3.582-3.174l-3.82-26.983
		C164.102,70.83,165.443,68.592,167.465,67.914z M151.814,75.418c0.386-0.117,0.781-0.177,1.174-0.177
		c1.943,0,3.487,1.414,3.758,3.438l3.609,27.023c0.279,2.099-1.035,4.166-3.059,4.811c-0.426,0.134-0.855,0.2-1.277,0.2
		c-1.865,0-3.355-1.315-3.623-3.202l-3.813-27.011C148.268,78.258,149.656,76.073,151.814,75.418z M192.379,113.98
		c-4.688,5.426-11.689,10.604-20.729,15.362c-8.825,4.647-16.513,7.245-22.938,7.775c-0.689,0.062-1.388,0.094-2.065,0.099
		c-6.886,0.04-12.116-2.905-14.761-8.375c-0.995-2.058-0.039-4.715,2.146-5.918c0.68-0.374,1.434-0.571,2.184-0.576
		c1.573-0.012,2.944,0.828,3.576,2.184c1.424,2.901,3.781,4.134,7.881,4.11c0.434-0.001,0.879-0.021,1.342-0.05
		c4.957-0.417,11.848-2.855,19.432-6.91c7.685-4.109,13.963-8.737,17.641-13.038c3.667-4.442,4.666-7.706,3.371-11.209
		c-0.84-2.278,0.432-5.222,2.849-6.551c0.774-0.425,1.601-0.651,2.39-0.655c1.626-0.012,2.969,0.926,3.502,2.436l0.055,0.155
		C200.621,99.533,198.428,107.245,192.379,113.98z"/>
	<path fill="#9ECBA5" d="M129.955,207.302l58.597,18.683l106.711-78.77L238.645,134L129.955,207.302z M281.246,150.104
		l-93.792,69.23l-43.872-13.985l96.248-64.912L281.246,150.104z"/>
	<path fill="#9ECBA5" d="M170.37,203.781l76.427-55.971l-8.734-1.824l-75.227,55.092
		C165.354,201.943,167.865,202.844,170.37,203.781z"/>
	<path fill="#9ECBA5" d="M184.063,212.313l77.33-59.985l-8.52-1.779l-75.758,58.769
		C179.438,210.294,181.753,211.295,184.063,212.313z"/>
	<path fill="#9ECBA5" d="M348.759,11.236c-5.115-3.538-12.32-4.28-17.467-4.28h-1.289c-3.51,1.236-3.893,4.441-3.893,5.774v0.494
		c0.16,10.478,0.16,59.94,0,70.556v20.989c0,2.872,1.352,3.938,4.984,3.938c0.729,0,1.547-0.045,2.516-0.137
		c21.385-1.993,32.572-17.759,34.217-48.2C368.734,44.575,366.164,23.232,348.759,11.236z M334.46,103.188l-1.018,0.12l-0.025-0.988
		c-0.225-8.751-0.139-20.305-0.064-30.498c0.033-4.43,0.064-8.53,0.064-11.899c0-6.509,0.789-38.75,1.127-45.998l0.039-0.855h2.014
		c21.74,0,24.086,34.147,24.086,48.832C360.683,75.113,355.203,100.747,334.46,103.188z"/>
	<path fill="#9ECBA5" d="M412.089,100.879c-1.453,0-3.145,0.137-5.104,0.291c-2.477,0.197-5.277,0.42-8.322,0.42
		c-4.615,0-7.455-0.043-8.443-0.127l-0.859-0.072l0.508-33.863l16.887-1.946c3.432-0.395,5.521-2.255,5.451-3.361
		c-0.047-0.772-1.451-1.272-3.572-1.272h-0.75l-18.33,2.087l-0.842-42.921h20.244c2.438,0,5.984-1.046,5.984-2.687
		c0-0.053,0.002-0.096-0.006-0.136l-0.082-0.136c-0.436-0.542-2.869-1.883-3.492-1.919h-25.4c-2.371,0-4.697,1.698-4.697,3.427
		l1.764,85.904c1.16,0.521,6.449,1.218,15.242,1.218c12.055,0,18.141-1.313,18.611-2.246
		C416.724,101.878,415.894,100.879,412.089,100.879z"/>
	<path fill="#9ECBA5" d="M432.837,107.894c1.895,0,4.77-1.013,4.936-3.794l4.822-84.501c-0.002-0.07,0.031-0.486,0.07-0.945
		c0.041-0.491,0.09-1.037,0.09-1.229c0-3.553,0-4.292-3.732-4.292c-3.139,0-3.527,0.056-4.387,1.907l-4.334,91.5
		C430.304,107.6,431.896,107.894,432.837,107.894z"/>
	<path fill="#9ECBA5" d="M500.445,7.45c-2.857,0-4.219,0.586-4.219,3.921l-0.02,0.192c-2.33,10.235-4.814,21.94-7.211,33.263
		c-2.938,13.826-5.965,28.123-8.869,40.498l-1.029,4.382l-14.434-80.37c-0.389-0.457-2.064-1.652-2.512-1.827l-0.234-0.131
		c-0.049-0.037-0.295-0.13-0.842-0.13c-1.668,0-3.982,0.754-4.936,1.274c3.453,14.201,6.076,28.977,8.613,43.271
		c3.063,17.238,6.223,35.063,10.846,51.827c0.387,0.895,1.355,0.992,3.297,0.992c2.236,0,3.258-0.16,4.098-1.74l6.246-31.628
		c0.727-3.344,1.436-6.685,2.145-10.033c3.662-17.232,7.447-35.054,13.199-52.105C503.767,7.709,502.726,7.45,500.445,7.45z"/>
	<path fill="#9ECBA5" d="M514.197,107.894c1.895,0,4.77-1.013,4.936-3.794l4.822-84.501c0-0.07,0.031-0.486,0.072-0.945
		c0.041-0.491,0.088-1.037,0.088-1.229c0-3.553,0-4.292-3.732-4.292c-3.137,0-3.523,0.056-4.387,1.907l-4.332,91.5
		C511.664,107.6,513.255,107.894,514.197,107.894z"/>
	<path fill="#9ECBA5" d="M355.664,123.037c-0.367,0-1.486,0-1.486,2.598c0,6.251,0.266,12.415,0.537,18.942
		c0.297,6.953,0.604,14.143,0.604,21.904v5.58l-1.021-0.101c-2.102-0.202-5.705-0.261-9.52-0.321
		c-4.348-0.074-8.842-0.147-11.668-0.443l-0.828-0.085l-0.146-47.211c-0.711-0.43-3.412-0.864-4.188-0.864
		c-2.365,0-2.768,1.003-2.768,3.253l1.703,77.549c0.236,0.874,1.646,1.396,2.91,1.396c0.738,0,2.273-0.409,2.625-0.74v-28.979
		l0.824-0.093c7.107-0.78,14.092-0.595,20.738,0.556l0.676,0.113l0.084,0.657c1.234,9.612,1.09,19.977,0.865,27.007
		c0.379,0.684,1.506,1.991,1.994,2.135h0.623c2.115,0,3.902-1.141,3.902-2.488l-1.846-78.345
		C360.039,123.663,357.449,123.037,355.664,123.037z"/>
	<path fill="#9ECBA5" d="M401.22,203.451c-1.279,0-2.773,0.119-4.504,0.255c-2.188,0.176-4.668,0.373-7.365,0.373
		c-4.082,0-6.598-0.038-7.475-0.113l-0.859-0.072l0.451-30.124l15.023-1.732c2.924-0.337,4.777-1.945,4.723-2.863
		c-0.031-0.511-0.986-1.025-3.051-1.025h-0.656l-16.314,1.854l-0.75-38.165h18.008c2.063,0,5.182-0.903,5.182-2.27
		c0-0.042,0.002-0.077-0.002-0.11l-0.113-0.219c0.029,0.109,0.074,0.168,0.074,0.168c-0.35-0.455-2.469-1.626-3.02-1.673h-22.447
		c-2.041,0-4.043,1.449-4.043,2.925l1.555,75.875c1.123,0.454,5.775,1.044,13.369,1.044c10.266,0,15.672-1.094,16.33-1.894
		C405.189,204.237,404.462,203.451,401.22,203.451z"/>
	<path fill="#9ECBA5" d="M428.298,122.6h-1.42c-5.961,0-7.23,0.14-7.459,4.176c-0.166,4.813-0.346,9.65-0.523,14.498
		c-0.721,19.502-1.465,39.667-1.465,59.396v8.807c0.738,0.63,1.955,1.001,3.334,1.001c0.875,0,1.479-0.155,1.787-0.46
		c0.457-0.448,0.439-1.393,0.418-2.39c-0.004-0.208-0.008-0.418-0.008-0.624c0.135-8.832,0.826-32.718,0.996-34.561
		c0.016-1.128,0.576-5.458,0.887-6.529l0.189-0.656h2.979c10.156,0,11.158,9.442,11.588,13.479
		c0.465,6.043,1.543,20.274,1.701,23.928c0.377,0.764,1.469,0.822,3.061,0.822h0.141c3.193,0,3.193-0.824,3.193-1.177v-0.876
		c-0.002-0.275-0.242-1.871-0.416-3.036c-0.299-1.976-0.438-2.944-0.438-3.298c-0.162-1.686-0.207-3.907-0.254-6.261
		c-0.15-7.602-0.357-18.011-5.031-22.719l-0.084-0.096c-0.488-0.66-3.645-3.521-4.373-4.083l-1.098-0.844l1.234-0.646
		c10.088-5.286,11.596-15.666,11.596-21.385v-1.201C448.833,128.592,440.775,122.6,428.298,122.6z M427.587,159.298
		c-2.295,0-2.777-1.021-2.777-1.88c0-4.647,0.262-8.937,0.514-13.085c0.287-4.704,0.557-9.146,0.482-14.099
		c0-2.283,1.762-3.75,4.482-3.75c8.354,0,12.16,6.521,12.16,12.583C442.449,145.021,438.171,159.298,427.587,159.298z"/>
	<path fill="#9ECBA5" d="M479.156,124.02H467.25c-2.484-0.109-4.479-0.162-6.135-0.162c-7.668,0-7.791,0.899-7.996,3.566
		c0.143,0.368,1.094,0.911,5.471,0.911c1.621,0,3.662-0.063,6.621-0.212l0.939-0.047l2.879,69.955
		c0.371,0.339,1.992,0.757,2.77,0.757c0.771,0,2.373-0.411,2.762-0.749l-2.729-70.136h12.904c0.91,0,1.91-0.827,1.91-1.178
		C486.646,124.535,482.373,124.131,479.156,124.02z"/>
	<path fill="#9ECBA5" d="M527.521,200.583c-2.223,0-4.691,0.361-7.08,0.709c-2.398,0.352-4.879,0.711-7.137,0.711h-1.146
		l16.689-75.729c-0.176-0.933-0.449-1.379-2.463-1.379c-4.563,0-9.088,0.054-13.465,0.105c-4.533,0.056-9.221,0.11-14.113,0.11
		c-1.305,0-2.273,0.351-2.887,1.041c-0.537,0.604-0.639,1.302-0.602,1.528c0.104,0.596,1.572,1.205,4.627,1.205h22.08l-0.283,1.112
		c-2.734,10.716-4.805,21.406-6.799,31.743c-2.227,11.498-4.324,22.359-7.275,33.363c-0.18,0.618-0.467,1.396-0.799,2.299
		c-0.73,1.98-1.73,4.695-1.73,6.322v0.438c0.361,1.277,2.221,2.38,4.045,2.38c2.643,0,4.627-0.321,7.143-0.732
		c1.301-0.213,2.773-0.454,4.533-0.681c0.473-0.063,1.164-0.107,2.039-0.167c2.527-0.166,9.236-0.604,9.236-2.438
		C532.136,200.638,527.994,200.583,527.521,200.583z"/>
</g>
</svg>
