<?xml version="1.0" encoding="UTF-8"?>
<svg xmlns="http://www.w3.org/2000/svg" xmlns:xlink="http://www.w3.org/1999/xlink" width="60pt" height="70pt" viewBox="0 0 60 70" version="1.1">
<g id="surface1">
<path style=" stroke:none;fill-rule:nonzero;fill:rgb(100%,100%,100%);fill-opacity:1;" d="M 12.617188 23.007812 C 14.820312 19.167969 17.878906 16.152344 21.789062 13.964844 C 25.699219 11.78125 30.074219 10.6875 34.917969 10.6875 C 42.035156 10.6875 48.011719 13.144531 52.84375 18.046875 L 52.84375 7.117188 C 51.480469 6.28125 50.039062 5.546875 48.511719 4.925781 C 44.289062 3.207031 39.632812 2.347656 34.542969 2.347656 C 28.027344 2.347656 22.128906 3.800781 16.855469 6.703125 C 11.574219 9.609375 7.449219 13.605469 4.46875 18.695312 C 1.488281 23.789062 0 29.515625 0 35.886719 C 0 42.257812 1.488281 47.988281 4.46875 53.078125 C 4.878906 53.777344 5.308594 54.449219 5.757812 55.105469 L 12.488281 48.535156 C 10.371094 44.753906 9.3125 40.539062 9.3125 35.890625 C 9.3125 31.140625 10.414062 26.847656 12.617188 23.007812 Z M 12.617188 23.007812 "/>
<path style=" stroke:none;fill-rule:nonzero;fill:rgb(100%,100%,100%);fill-opacity:1;" d="M 16.808594 65.070312 C 22.050781 67.972656 27.933594 69.425781 34.453125 69.425781 C 39.539062 69.425781 44.210938 68.550781 48.464844 66.800781 C 50.011719 66.167969 51.46875 65.421875 52.847656 64.570312 L 52.847656 53.636719 C 47.953125 58.597656 41.980469 61.085938 34.917969 61.085938 C 30.074219 61.085938 25.699219 59.996094 21.789062 57.808594 C 19.472656 56.515625 17.464844 54.925781 15.75 53.050781 L 9.273438 59.375 C 11.449219 61.59375 13.960938 63.492188 16.808594 65.070312 Z M 16.808594 65.070312 "/>
<path style=" stroke:none;fill-rule:nonzero;fill:rgb(100%,100%,100%);fill-opacity:1;" d="M 28.988281 32.4375 L 29.125 32.308594 L 35.347656 38.761719 L 41.253906 32.996094 L 38.773438 30.425781 L 49.796875 28.210938 L 47.511719 39.476562 L 45.117188 37 L 35.308594 46.660156 L 28.757812 40.347656 L 21.375 47.554688 C 24.535156 51.554688 29.410156 54.125 34.886719 54.125 C 44.410156 54.125 52.132812 46.355469 52.132812 36.773438 C 52.132812 27.191406 44.410156 19.417969 34.886719 19.417969 C 25.359375 19.417969 17.636719 27.1875 17.636719 36.773438 C 17.636719 38.796875 17.984375 40.738281 18.621094 42.546875 L 28.980469 32.425781 Z M 28.988281 32.4375 "/>
</g>
</svg>
