<svg xmlns="http://www.w3.org/2000/svg" xmlns:xlink="http://www.w3.org/1999/xlink" width="405.088" height="356.152" xmlns:v="https://vecta.io/nano"><style><![CDATA[.B{stroke:#6c67ae}.C{stroke-miterlimit:10}.D{fill:none}.E{fill:#6c67ae}.F{stroke-width:4}.G{fill:#b9dfbf}]]></style><path d="M225.485 54.721c.193-3.346.307-6.707.391-10.065-.879 3.022-1.381 6.146-1.439 9.248-.024.394-.026.789-.04 1.183.346-.155.71-.282 1.088-.366zm131.71 15.702l-8.066-7.479-1.649-.545-4.541-1.497c-3.33-.76-6.54-1.727-9.667-2.812-2.931-1.016-5.804-2.175-8.7-3.516-24.366-7.381-48.265-16.818-73.093-22.452.382 25.557-1.047 51.133-1.084 76.699-.004 2.303-1.272 3.778-2.903 4.437l-.967 6.265c1.024 5.045 2.2 10.042 3.563 14.922 2.913 10.427 7.385 21.382 5.461 32.372-.717 4.095-5.905 4.499-8.439 2.035 3.674 7.661 7.018 15.753 8.894 24.103-2.188-.988-4.085.184-5.297 1.947-.587-.074-1.193.121-1.662.563-1.176.069-2.34.583-3.165 1.564-.119.142-.199.299-.294.451l-2.626-4.861c-.129 2.716-.392 5.414-.769 8.096.33.757.65 1.519.945 2.287.261.084.506.154.76.232-.859.948-1.684 1.928-2.582 2.84-1.812 1.838 1.016 4.667 2.828 2.828.212-.215.404-.447.608-.669.019.085.047.171.065.255 9.646.054 19.206 1.559 28.854 1.715l19.948.104a5.47 5.47 0 0 1 .46-1.343c3.268-6.598 9.301-12.151 16.386-16.008 4.757-6.602 12.804-9.88 21.376-11.615 4.943-2.737 11.262-3.579 17.272-2.885.645-.023 1.283-.062 1.916-.125 1.266-.125 2.507-.346 3.708-.722.701-.007 1.413.012 2.127.027l1.267.068-.934-107.281z" fill="#d5ccdd"/><path d="M107.713 331.952c.063-1.4-.043-2.761-.161-3.705-.473-3.8-1.876-7.831-4.53-10.672.738-.644 1.005-1.796.119-2.835-4.987-5.85-10.961-10.506-17.405-14.646-.464-.298-1.023-.336-1.534-.188-.357-1.22-.747-2.429-1.213-3.616-.362-.921-1.09-1.377-1.833-1.408-.983-8.1-2.053-16.188-3.495-24.224.209-.863.379-1.736.557-2.608a1.99 1.99 0 0 0 .437-.697c.354-.995.648-2 .917-3.009.468-.34.805-.859.821-1.522l.043-2.508c.711-4.323.813-8.734.624-13.159-.036-.825-.553-1.432-1.203-1.74 1.183-6.096-1.091-12.531-3.299-18.186.345-.698.309-1.547-.417-2.155-3.566-2.99-7.665-5.108-11.738-7.313-.473-.256-.954-.297-1.391-.195-.415-.282-.834-.559-1.276-.805-1.052-.586-2.693-.111-2.938 1.195a22.98 22.98 0 0 0-.177 1.101 9.59 9.59 0 0 0-2.228-.569c-.989-.131-2.126 1.014-2 2 .08.62.208 1.188.37 1.729-3.074 2.526.562 6.79 3.288 8.664.82.564 1.704.327 2.3-.245a42.31 42.31 0 0 0 .982 2.528c.177.418.432.691.722.857l1.743 6.997c.317 1.187 1.332 1.564 2.249 1.374-.045 11.368-.338 22.731-.653 34.095-.032 1.14.808 1.815 1.728 1.933a2.42 2.42 0 0 0 .011.599 198.14 198.14 0 0 0 1.109 6.463c.294 4.014.884 7.987 2.224 11.871.104.303.257.549.438.753l1.614 6.8c-1.372-.896-3.649.12-3.051 2.113 1.993 6.64 4.685 13.166 6.624 19.86-.897 4.371-.106 8.997 2.578 12.618.918 1.238 3.221 1.221 3.662-.269.064.041.129.081.197.112l1.272 3.678c.296.777.872 1.219 1.493 1.359.375.953.813 1.886 1.375 2.786.777 1.243 2.329 1.196 3.164.324.416.013.839-.113 1.21-.33 1.472.185 3.134.101 4.78-.237a1.7 1.7 0 0 0 1.438.162 20.46 20.46 0 0 0 4.202-1.945c.545-.132 1.042-.307 1.42-.497 2.707-1.364 5.39-8.162 4.831-12.688zm-44.151-107.86l-.137-.431c.073-.223.096-.463.051-.716l.753.648a1.49 1.49 0 0 0-.667.499zm36.942 106.61l-.152.089c-.424-1.58-.898-3.358-1.209-5.139a7.87 7.87 0 0 0 .987 1.194c.384.666.782 1.327 1.204 1.984a.22.22 0 0 0 .014.018c-.42.497-.695 1.14-.844 1.854zm-5.625 8.987c-.063.028-.117.078-.177.114-.106-1.445-.322-2.896-.63-4.342.057.045.115.087.177.122.339 1.167.524 2.643.63 4.106zm-7.396-24.861c-.203-.879-.39-1.763-.571-2.648l1.067 1.577a33.27 33.27 0 0 0 1.269 2.748c.059 4.012 1.815 8.364 4.329 11.275a22.54 22.54 0 0 0 .725 3.479c-.475.249-.842.691-.973 1.281a37.83 37.83 0 0 0-2.852-6.895c-.568-3.716-1.554-7.396-2.994-10.817zm248.913-24.065l-.413-5.724c.19-2.61.167-5.199-.443-7.646-.088-2.421-.294-4.824-.799-7.146l-.222-2.882c-.506-6.971.811-14.039-2.397-20.555-.226-.457-.641-.744-1.108-.881-.458-1.399-1.009-2.742-1.556-3.957-1.657-3.687-4.387-5.692-7.564-7.13-2.341-1.74-5.001-2.916-7.832-2.689-1.03.082-1.683.76-1.883 1.54-.597.155-1.165.474-1.696.973-.369-.15-.751-.29-1.223-.441-1.854-.596-2.892 1.466-2.258 2.938 1.008 2.344 2.756 2.941 4.737 2.99-.571.417-1.152 1.055-1.737 1.99-.169.27-.323.557-.468.856-.094-.033-.178-.079-.274-.108-2.472-.759-3.521 3.103-1.063 3.857.087.026.164.072.248.106-.488 3.585.16 7.706 1.969 10.528l.013.819c-1.044-.002-2.102.691-2.031 1.95l.024.403c-2.227 11.824-2.275 27.844 3.633 38.803l.214.846a4.33 4.33 0 0 0-1.683-.518c-2.398-.23-3.712 1.084-4.306 3.104-.179-.123-.353-.255-.54-.365-1-.59-2.11-.17-2.736.717-.905 1.283-1.42 2.769-1.602 4.301-2.387 3.246-2.08 10.44 1.089 13.439.527.769 1.133 1.46 1.825 2.017.912.733 2.049.713 2.781.007a5.21 5.21 0 0 0 .483.102c1.722 1.016 3.557.86 4.405-1.594.697-.688 1.301-1.526 1.806-2.417l.212.498c.487 1.084 1.514 1.181 2.376.785 2.208.836 4.51.987 6.631.339.215.202.413.423.639.614.925.781 2.518.826 3.141-.404a12.88 12.88 0 0 0 .667-1.583c2.124.446 5.058-.298 6.944-1.435 4.768-2.873 4.544-8.636 1.78-12.669 2.441-4.441 2.79-9.947.217-14.378zm-3.016 22.721c-.327.414-2.994 1.717-4.005 1.944.6-.742 1.103-1.593 1.531-2.502.359-.165.678-.415.881-.763.734-1.254 1.287-2.581 1.713-3.954.911 1.668 1.152 3.666-.12 5.275zM143.6 27.877l97.196 1.113 9.236 5.689 2.692 7.215-2.692 61.385-15.736 13.2V44.012l-120.678.644-4.514 109.803 14.163 4.159 108.814.28.176 14.505 8.473 17.352.73 15.164-143.664 3.616-8.811-5.54-2.523-8.461 14.673-164.05z" fill="#fff"/><path d="M242.947 231.975c0 4.84-.01 10.372.357 16.035.122 1.888.286 3.79.507 5.686a49.62 49.62 0 0 0 .308 3.343c.142 1.128.322 2.268.544 3.409.511 2.174 1.158 4.401 1.954 6.611a53.47 53.47 0 0 0 1.308 3.291c1.201 2.534 2.664 4.998 4.389 7.267.861 1.135 1.789 2.221 2.784 3.242 1.907 1.907 4.213 3.588 6.76 4.948a30.43 30.43 0 0 0 3.987 1.777c12.883 4.903 27.883-2.097 36.527-12.003.72-.894 1.408-1.824 2.063-2.788 2.292-4.306 6.292-8.306 7.792-13.431 1.5-2.75.167-6.208-2.823-9.15s-5.826 2.479-5.826 2.479c-4.851 9.797-12.851 19.797-24.2 22.541-1.215.239-2.461.387-3.736.433s-2.581-.01-3.914-.177c-7-1-11-7-12.899-13.323-.393-1.609-.685-3.275-.907-4.948-.444-3.345-.611-6.717-.75-9.713-.043-1.231-.043-2.63.132-3.857s.525-2.287 1.182-2.838l-15.539-8.834z" class="B C F G"/><path d="M117.796 42.66h113.833s7.666-1 7.166 8.833l-6.334 104.333s1.5 7.167-9.666 7.5-110.165 0-110.165 0-6.667-.833-6.333-12.833S111.63 48.16 111.63 48.16s1-4 6.166-5.5z" class="E"/><g class="C F"><path d="M238.819 28.785c6.667.333 13.977 4.083 14.644 10.083l-9.334 156.666c-1 14.999-11 14-11 14H97.796c-11.333-1.667-11.333-14-11.333-14L98.13 39.284c0-11.25 11.25-10.5 11.25-10.5l131.417.206L349.13 64.774s9 4.427 9 11.26v103.5c-50-.667-64.333 30.101-64.333 30.101H225.13" class="B D"/><path d="M234.296 54.618h-97.221s-11.446-.353-12.446 6.667c-.667 9.333-5 91-5 91s-1.333 6.333 10.667 6.333h93.667s5-.667 5.333-5 5-99 5-99z" fill="#e7f3e9" stroke="#6b67ae"/></g><path d="M225.622 177.225h-64.25s-2.667.416-2.667 3.75v3.332s-.25 3.416 3.25 3.25 46.667 0 46.667 0l3.875 3.875h12.625l3.438-3.438v-10.77h-2.938z" class="E"/><g fill="#e92f8b"><path d="M159.798 79.584h11.109v20.759h-11.109zm27.279 0h11.107v20.759h-11.107zm41.263 19.511h-11.108v10.95h-10.951v10.996H151v-10.996h-11.108v11.109h11.059v10.995h55.372v-10.995h11.067v-10.95h10.95z"/><path d="M128.784 98.936h11.108v11.109h-11.108z"/></g><g class="B C D F"><path d="M308.73 266.539c-2.913 10.744-.85 19.411 2.221 30.475m-226.862 6.153c8.833-5.049 21.055 10.723 23.027 18 2.768 10.211 5.986 25.195-15.639 30.07"/><path d="M93.728 349.904c-3.583 3.083-9.434 4.597-10.792 4.18-16.208-4.597-18.208-23.597-23.847-37.417l-1.663-5.148c-5.136-15.304-11.373-29.451-12.363-45.852l-.191-3.798-.107-4.029a84.38 84.38 0 0 1-.243-4.943 88.04 88.04 0 0 1 .053-4.851c-1.847-14.559 7.153-38.559 26.146-29.26 1.252.845 2.382 1.888 3.394 3.08 3.035 3.573 5.004 8.477 5.99 13.362.282 1.397.483 2.794.603 4.162 1.132 5.287 1.277 10.56 1.039 15.826a113.41 113.41 0 0 1-.374 5.264c-3.646 15.008-1.646 32.008 4.127 46.313a168.03 168.03 0 0 0 1.968 4.643c2.39 5.442 4.989 10.972 6.567 16.53.395 1.39.726 2.781.973 4.177.906 2.782.955 5.525.458 8.163-.249 1.319-.633 2.612-1.114 3.858-1.625 3.324-4.088 6.256-7.375 8.741M51.089 223.167c2.783 3.521 7.055 5.375 9.5 9.488 2.735 4.604 4.056 10.496 4.889 15.635 1.084 6.689 1.868 13.588 1.611 20.488-.281 7.564-1.85 16.156 1 23.389"/><path d="M86.589 354.347c-.73-5.643-.01-9.199-2.389-15.18-2.581-6.486-8.776-11.383-8.611-19m231.571-53.54c1.714 3.16 4.059 6.273 7.968 4.984 7.22-4.382 7.77-12.58 6.232-20.076a20.52 20.52 0 0 0-1.308-4.297 19.55 19.55 0 0 0-2.317-3.997c-.849-.953-1.859-1.81-3.048-2.544-1.201-.358-2.43-.393-3.604-.158-1.174.23-2.292.729-3.269 1.438s-1.812 1.623-2.422 2.691a8.24 8.24 0 0 0-1.069 3.616"/></g><path d="M296.478 217.157l-20.3 34.84h-127.72c-2.06-5.05-4.78-9.51-7.8-13.399-11.42-14.75-27.04-21.44-27.04-21.44h182.86z" fill="#d5ccdd"/><g class="C F"><path d="M189.777 251.997h-41.32c-2.06-5.05-4.78-9.51-7.8-13.399-11.42-14.75-27.04-21.44-27.04-21.44h182.86l-20.3 34.84h-86.4z" stroke="#6b67ae" class="D"/><path d="M272.13 172.792l-40.757-40.535c-5.096-5.069 1.02-12.332 1.02-12.332L346.639 6.992s7.779-8.072 12.187-3.688l42.124 41.897c4.429 4.405.606 10.008.606 10.008l-117.929 118.57s-4.453 6.019-11.497-.987z" fill="#fff" class="B"/></g><g class="E"><circle cx="143.6" cy="182.654" r="4.667"/><circle cx="127.933" cy="182.654" r="4.667"/><circle cx="113.618" cy="182.654" r="4.667"/></g><path d="M108.951 197.737h120.527m-91.877 36.84h148.127" class="B C D F"/><g class="E"><path d="M80.366 327.06a2.79 2.79 0 0 0-.146-.5c-5.094-12.007-7.984-24.897-9.566-37.811-1.296-10.581-2.036-21.284-4.982-31.535l-.107-1.317c-.448-4.337-1.295-8.662-2.86-12.738-.136-.354-.288-.698-.44-1.043-.49-4.871-1.382-9.336-5.249-12.055-.702-4.661-8.334-6.049-9.775-.568-1.596 6.071-1.793 12.748-1.846 18.995a4.95 4.95 0 0 0 .317 1.803c-2.424 7.504-2.939 17.161.558 23.158-.442.939-.521 2.08-.029 3.368 1.348 3.524 2.438 6.962 4.316 10.125.586 1.746 1.189 3.485 1.933 5.159 1.41 6.488 3.983 12.649 6.781 18.666 4.076 13.287 4.872 27.75 13.299 39.316 1.301 1.785 3.78 1.139 4.551-.295a24.26 24.26 0 0 0 3.173 3.134c1.306 1.068 3.435.772 4.076-.714 1.262.638 3.135.343 3.769-1.389 3.001-8.192-2.542-16.627-7.773-23.759zm129.862-93.073c-3.493.403-7.065 1.323-10.63 1.744.022-1.237-.722-2.377-2.37-2.244-1.695.137-3.125.489-4.522 1.111-3.089.411-6.208-.088-9.313-1.022-1.461-.41-2.513.426-2.909 1.521-.031-.008-.06-.013-.091-.021-1.354-.334-2.366.375-2.831 1.35-2.822-.959-5.516-1.612-8.415-1.605-.921-1.178-2.336-1.958-3.919-1.958h-.5c-1.904 0-3.569 1.122-4.411 2.721-.196-.032-.39-.074-.589-.096-.834-.089-1.6.417-2.064 1.121l-.683-.089c-.825-.492-1.515-.798-2.588-.943-.37-.05-.769-.008-1.156.103a2.37 2.37 0 0 0-.706-.156c-.484-.612-.989-1.216-1.535-1.803-1.519-1.636-4.432-.234-4.293 1.833-.266-.161-.552-.283-.85-.356-.5-.717-1.023-1.423-1.575-2.115-.663.329-1.396.531-2.175.531h-.125c-.665 0-1.302-.14-1.887-.384-.361.551-.51 1.226-.274 1.924 1.328 3.923 3.303 7.446 5.577 10.826.626 1.453 1.361 2.863 2.175 4.271.58 1.003 1.606 1.308 2.552 1.137.935.039 1.858-.438 2.301-1.31.248.138.515.233.79.286.242.3.485.599.748.893 1.266 1.416 2.931.794 3.734-.46.652.295 1.234.466 1.751.529.175.103.351.205.521.321.655.449 1.389.463 2.037.211.155.131.294.271.457.398.824.643 1.748.758 2.522.518 1.729 1.519 4.108.303 4.202-1.756.5.148.99.072 1.425-.147.086-.012.171-.025.256-.044.584.201 1.22.156 1.786-.069l1.334.037c.265.551.77.98 1.577 1.105.224.034.443.051.666.08.015.008.03.006.046.006 3.291.434 6.474.337 9.642-.145.307 1.632 1.867 3.051 3.573 1.806 1.759-1.282 3.114-2.638 4.396-4.396.586-.803.491-1.712.039-2.436.512.1 1.052.067 1.564-.168 1.894-.87 3.873-1.324 5.903-1.747 1.674-.349 2.073-1.866 1.62-3.118 2.924-.889 5.824-1.809 8.477-3.135 2.144-1.072 1.221-4.946-1.26-4.66zm70.335 1.589c-3.5.606-7.017.475-10.532.345-3.436-1.401-8.64-1.617-11.861.364-8.051-1.085-16.138-2.416-24.106-.209-.618.171-1.144.631-1.482 1.197-.483.056-.981.146-1.518.303-1.136.331-1.689 1.195-1.765 2.107-.645.288-1.273.601-1.887.944a2.39 2.39 0 0 0-1.945.201c-3.524 1.952-7.237 3.613-10.5 6-1.441 1.054-1.646 3.342-.128 4.268.468.548 1.17.908 1.89.891 14.68-.362 29.356 2.371 44 .5a2.96 2.96 0 0 0 1.414-.559c.535.077 1.077.05 1.61-.048a5.6 5.6 0 0 0 1.879-.509c2.148 1.833 5.854 1.9 8.762 1.026 1.207-.363 1.772-1.333 1.76-2.337.424.008.877-.109 1.337-.416 1.165-.776 1.761-1.663 2.396-2.896.675-1.308.274-2.441-.544-3.082.601-.897 1.088-1.871 1.558-2.956l.993-.313c3.081-1.057 1.823-5.366-1.331-4.821zM339.77 22.664c.041-.003-.355-.141-.425-.168.076.056.527.205.425.168zm.778.598l-.156-.068.373.194zm-.113.251c.669.25-.067-.137.187-.085l.153.053-.524-.235c.062.087.384.304.184.267zm-1.474-.478c.259.103.209.121.092.007l-.066-.022c.001.005-.003.012-.026.015z"/><path d="M338.986 23.019c-.008-.031-.221-.077 0 0h0zm.101.172l-.214-.131c-.153-.06-.198-.048-.303-.106.112.086.263.147.517.237zm.464.243l-.09-.06c-.064-.025-.087-.03.09.06z"/><path d="M339.273 23.249l.188.125c.107.042.319.136-.065-.049.191.089.008-.001-.123-.076zm.108.024c.15.044.25.059.462.191-.063-.104-.529-.292-.462-.191zm1.729.539l.204.053-.211-.117c.105.058-.2-.021.007.064zm-2.438-.581l.549.24-.148-.097c-.1-.031-.196-.049-.401-.143z"/><path d="M339.221 23.471l.222.146c.04-.019-.07-.077-.222-.146zm1.05.293l-.474-.285.476.3zm-1.668-.417l-.308-.167.462.258zm.014.096l-.603-.297c.036.04.251.167.443.284-.103-.073-.065-.073.16.013z"/><path d="M338.735 23.604l-.277-.174.277.174zm.615.043l-.403-.159.392.171.011-.012z"/><path d="M339.351 23.664l-.013-.005c-.015.012-.028.017-.035.018.006-.002.019-.005.048-.013z"/><path d="M339.353 23.645l-.003.002c.038.017.05.022.003-.002zm.525.059c.208.121.421.278.771.383-.259-.138-.459-.199-.771-.383z"/><path d="M339.842 23.855l.105.001-.357-.171.252.17z"/><path d="M339.956 23.934l-.114-.079h-.038z"/><path d="M339.121 23.733c.158.098.163.121.18.152.086.02.137.021.146.001-.118-.063-.328-.179-.326-.153zm.146-.015l.02.014c.033.014.044.018-.02-.014z"/><path d="M339.201 24.056l.07.035-.064-.037-.006.002zm.32-.138c.082.022-.006-.033-.12-.1.033.03.052.054.047.067.053.03.089.048.073.033z"/><path d="M338.887 23.74l.222.086-.222-.086zm.291-.055l-.016-.011c-.085-.036-.045-.017.016.011z"/><path d="M339.178 23.685l.223.134c-.024-.023-.062-.052-.114-.086l-.109-.048zm2.385 1.769c-.343-.199-.637-.424-.241-.262-.236-.185-1.398-.776-2.051-1.102.15.084.291.161.476.31.195.094.488.163.784.367.15.151-.146-.024-.343-.103.443.219.589.419 1.226.769l-.194-.177c.098.055.245.162.343.198z"/><path d="M339.342 24.047l-.036-.037c-.069-.018-.215-.081-.497-.211.157.114.283.189.398.254l.085-.04.05.034z"/><path d="M339.339 23.949c.376.209.518.332.942.527-.001-.06-.301-.199-.453-.311.057.118-.202-.129-.445-.194a.26.26 0 0 1-.082-.087 2.01 2.01 0 0 1-.192-.059l.024.011-.001-.001.006.003.049.025.15.083c-.089-.023-.101-.049-.143-.078l-.056-.031-.005-.002.173.173c.06.017.059-.006.033-.059zm2.132.574l-.092-.04c.045.028.077.046.092.04z"/><path d="M341.22 24.449c-.052-.032-.206-.11-.157-.111.125.037.188.087.316.146-.099-.061-.263-.173-.469-.223l.051.031c-.148-.028-.652-.215-.703-.247l.962.404z"/><path d="M340.372 24.273l.154.156.352.135-.201-.099c.098.004-.153-.111-.305-.192zm-1.361-.315l-.395-.227.546.341zm.01.094l-.343-.198.199.135zm-3.327 5.853l-.069.095a.42.42 0 0 0 .069-.095zm.26.099l.056-.187c-.039.1-.065.176-.056.187zm2.305-4.89l-.278-.42.228.375c-.035-.071-.005-.032.05.045zm-.303 2.839l.024.13-.022-.418-.002.288zm.152 1.787l-.091-.271c.023.096.052.186.091.271zm-3.916.003l-.244.369c.056.029.137-.181.244-.369zm4.581-5.013c-.144-.091-.206-.125-.229-.129.205.142.51.358.229.129z"/><path d="M337.078 25.507l-.083.251c.028-.069.055-.148.083-.251zm1.441-.867l.083.059c-.049-.057-.088-.104-.058-.098-.153-.105-.248-.167-.025.039zm-7.423 2.168l.032-.042c-.044.04-.043.045-.032.042zm2.617-3.649c.026-.011.036 0 .049.006.018-.024.009-.03-.049-.006zm5.002 1.065c-.017-.03-.04-.028 0 0h0zm1.499.828l.176.117-.176-.117zm.245 1.5l-.002.001c.067.051.054.042.002-.001zm-1.565-2.245l-.119-.05a1.02 1.02 0 0 0 .119.05z"/><path d="M338.718 24.201l.042.01c-.061-.04-.1-.063-.042-.01z"/><path d="M338.724 24.255c-.001-.011.021-.008.051.001l-.06-.033c.003.008.008.019.009.032zm-5.318 3.132l.022-.035c-.132.124-.106.108-.022.035zm6.477 2.024l-.004-.02-.011-.013z"/><path d="M339.892 29.753c-.153-.519-.105-.465-.023-.375l-.522-1.137.545 1.512z"/><path d="M335.059 29.785l-.063.396c-.344.551-.349.309-.47.853.526-1.25.42.022.895-1.248l-.041.291c-.012-.019-.04.056-.052.037-.102.658.398-.896.457-.665a.86.86 0 0 1-.091.457l.205-.292c.023.034-.049.258-.073.225l.195-.06-.012.038.264-.635c-.007.199-.053.135-.083.302l.159-.298c-.041.352-.189.666-.243.6-.221 1.341.149-.313.174.507l-.129.146c-.095.768.042.514.079 1.014.002-.255-.006-1.241.167-1.547.008.107.04.165.14-.092-.08.476-.004.372.068.36l-.1.631c.108-.165.146-.489.228-.764.071.082.033.568.009.987.136.115-.009-.798.167-.902.087.253.198 0 .34-.373.064.226-.031.39-.013.574l.089-.504c.015.013.005.169-.001.248.063-.193.027-.637.11-.806.019-.702.165 1.039.263.245.031.183-.001.391.014.639.13-.519.118-.37.182-1.086l.125.408c-.109-.47-.065-1.045-.062-1.516l-.095-.533.038-.357a6.03 6.03 0 0 1 .059.602l-.003-.158c.058.239.091.606.105.964l-.08-.388.077 1.191a.63.63 0 0 1 .021-.176l.019.263c.011.066.01-.076.011-.24l.109.704-.026-.282.232.421-.009-2.081c.078.515.176.835.31 1.439-.186-.634-.083.293-.212.176.063.061.105.353.109.456l.064-.61c.102.496.117.366.212.563-.255-.964-.026-.685-.042-1.004.091.323.163.661.058.609.288.698-.185-1.175.063-.583-.017.014-.04-.032-.002.135-.038-.302.133-.111.196.177l-.019.014c.169.068.415-.139.111-.933l.412 1.122-.424-1.366-.495-1.366 1.122 2.679c.072.081.162.167.121-.103-.067-.082-.485-.933-.489-1.007.407.698.225.37.618.938-.099-.123-.567-1.17-.517-1.159l.549 1.122-.197-.535-.208-.528c.069.194.438.845.618 1.107-.117-.186.117-.046.096-.164l-.179-.195c.223.063-.673-1.44-.554-1.445.115.202.724 1.231.867 1.308l-1.638-2.791.202.261-.189-.337c.521.708 1.487 2.296 1.769 2.942.194.185.229.313.292.238.204.234.219.415.203.447a4.56 4.56 0 0 0 .306.018c-.398-.54-.264-.658-.611-1.096l.123.353.112.361c-.383-.549-1.012-1.633-.866-1.609.188.189.715.96.851 1.138-.124-.197-.17-.439-.057-.32l.178.322c.228.135-.467-.776.018-.352.05.012.649.577.391.275-.558-.527-2.114-2.315-2.487-2.758l.838.738c.448.403.939 1.083 1.32 1.432a4.42 4.42 0 0 1-.302-.379c.133.091.384.42.381.309-.469-.494.145-.06-.381-.433-.091-.183.15.05.187-.026-.334-.292-1.038-1.068-1.164-1.235l.381.326c.108-.042.379.112.447.031.133.098.32.181.534.384-.084-.089-.255-.247-.247-.283.502.313.024.12.607.521-.305-.252-.369-.417-.536-.606-.493-.362-.156.013.004.209-.652-.533-1.298-1.147-1.563-1.444-.13-.177.453.305.364.224.201-.023-1.136-.942-.583-.662.468.272.887.599 1.213.81.129.167-.339-.117-.345-.074l.238.106c.135.118.219.233.078.161.416.245.234-.145.669-.008-.142-.116-.282-.246-.474-.346l.046.072c-.382-.205-.476-.378-.668-.448-.235-.203-.622-.494-.385-.418l.53.307c-.154-.091-.332-.153-.181-.041-.221-.162.759.342.083-.096l-.385-.18c-.243-.197-.783-.567-.593-.511-.535-.284.054.045-.574-.282.774.42-.087.083.731.516-.722-.392-.329-.125-.946-.455.173.105.337.19.234.17l.147.102-.014-.006.021.011c.025.018.03.021.008.004l.271.145c.386.262.341.314.532.465-.094-.029-.19-.135-.379-.239l.285.22c-.381-.24-.657-.369-.851-.545l-.04.017c-.224-.124-.321-.162-.177-.041-.09-.045.379.321.102.105l.189.209-.091-.066c-.075.004.507.564-.162.107.077.087.17.196.054.14l-.297-.25c.088.111-.326-.204-.031.077-.775-.703-.193-.13-.342-.245l.347.371c-.031-.01.056.105.17.278l.294.339c.215.304-.258-.194-.252-.137-.103-.139-.069-.109 0-.032-.634-.795.364.674-.106.087.082.144.043.102-.023.009 0-.001-.004-.009-.011-.021l-.145-.2.137.2c-.001.012.019.066.066.17l-.254-.415c-.094-.137.114.217.307.528l.132.264c-.399-.677.094.254-.324-.473.188.364.092.305.465 1.086-.051-.1-.079-.146-.073-.158-.063-.077-.12-.156-.032.075l-.271-.561.311.788c-.181-.332-.271-.535-.446-.986l.296.97-.145-.377c-.009.02.147.538.02.229-.289-.713-.246-.022-.505-.694.275 1.165-.151-.519.036.387l-.138-.673c.011.277-.122-.435-.027.337l-.082-.574c.007.061.025.244-.002.078l-.044-.356c-.013.049.089.91.183 1.718-.077-.379-.077-.324-.051.21-.038-.264-.076-.54-.054-.639-.027-.037-.131-.375-.101.273-.015-.166-.03-.05-.033.024-.048-.043-.052-.102-.097-.044l.014.107c-.018.782-.044.171-.084.262l.004-.081c-.067-.571-.058.266-.106-.383l-.028.485c-.091 1.04-.037-.622-.115-.228l-.011.277c-.082.354.095-1.425.111-1.554.011-.091.026-.143.04-.208.059-.616-.096.626-.156.762l.143-.922c.056-.27-.268 1.07-.165.423l-.167.701c-.065.079.18-.977-.068-.188l.053-.198c-.079.202-.176.313-.337.728.533-1.571-.457.678.092-.745l-.102.044.064-.142c0-.11-.168.216-.346.538.033-.099.104-.224.139-.296.066-.304.038-.251-.392.378l.226-.441c-.161.239.263-.748-.098-.289l.12-.187c-.398.439.541-1.269-.469.225l-.307.327c.006.177-.446.643-.577.918-.097.061.212-.518.307-.564l-.044.08c.539-.771.083-.351.449-.876-.182-.081-.02-.583-.12-.729l-.441.585-.022-.075c.094-.144.343-.459.356-.407.244-.337-.273.222-.377.344.121-.286.566-.638.556-.669l-.061.02-.048.071c-.211.213-.416.455-.435.392.067-.134.276-.357.285-.387.033-.04.046-.061-.002-.029l-.018-.097-.352.459c-.212.194-.039-.072-.437.449.616-.8.004-.468.189-.731-.322.274-.355.231-.367.15-.071.098-.508.579-.496.48.937-.958.326-.494.966-1.216-.418.485-.219.009-.812.698.042-.109.35-.359.547-.607-.445.295.074-.397-.137-.371-.129.12-.308.322-.518.481l.591-.656c-.079.041-.756.677-.343.225l-.313.291c.457-.759-.905.051.154-1.198-.239.246-.28.25-.308.236-.051.066-.334.278-.515.433l.438-.508c-.525.403-.112-.063-.612.325l.112-.043c-.613.43-1.243 1.099-1.988 1.701.694-.493-.859.931.142.234-.134.144-.249.184-.411.336.332-.243.417-.275.315-.11l-.081.061c.186.063-.081.385-.147.71l.344-.326c-.019.072-.124.178-.198.272.566-.445-.05-.113.571-.608-.682.683.182.219-.598.988.04.052.39-.386.429-.335l-.206.214.291-.249c-.019.073-.273.343-.455.516.015-.028-.072.026-.096.033-.216.281.195.035.126.127l.089-.172c.317-.061.195.372.748.062l.147-.168c.382-.207-.098.247.139.209l-.041.035c.175-.141.279-.197.289-.152-.206.166-.3.417-.533.596.407-.225.291-.205.921-.752l-.236.287c.249-.226.37-.354.482-.379-.254.197-.347.449-.676.717-.427.708.712-.467-.017.471.726-.73.274-.514.449-.654.198-.271.548-.541.513-.436.019.045-.797 1.044-.688 1.112-.006-.012-.057.047-.063.036-.132.231.297-.213.069.151.419-.459.035.076.542-.532l-.2.071c.182-.118.808-.802.6-.39-.105.12-.26.265-.35.343-.123.201.142-.084.015.123-.501.613-.21.048-.646.471-.185.282.464-.36-.104.284.723-.817.013.189.595-.409l-.298.37c.057-.05.216-.208.23-.185l-.416.458c.379-.371-.164.448.069.265-.132-.077.317-.475.479-.787.521-.406-.667 1.05-.357.993-.063.037.082-.292.248-.444-.026.101-.092.279-.216.496.17.001.267-.409.483-.612-.298.497.19-.154.34-.274l-.275.396c-.053.342.603-.805.496-.422l-.421.521.154-.103-.318.446c.292-.292.251-.192.23-.018.172-.295.484-.726.55-.707-.116.265-.27.373-.149.364-.18.245-.406.55-.204.154l-.271.371c-.133.305.077.134.111.149-.003-.023-.005-.054.024-.117l.477-.495c-.074.166-.165.282-.255.394.053-.029.186-.208.243-.223-.211.331-.415.68-.568.804l.35-.299c-.078.151-.17.442-.259.558-.038.245.551-.561.494-.243a.71.71 0 0 1 .131-.161c.045.125-.104.602.27.177l-.229.667c.17-.1.284-.843.556-1.012.201-.157-.206.564-.244.761.21-.295.576-.922.465-.349-.081.105-.071-.003-.123.031zm1.337.111c-.043.093-.157.387-.118.104.14-.535.105-.271.118-.104zm1.812-1.04c.007.16-.029.084-.077-.094.014-.041.037-.026.077.094zm.749-4.292l.019.014c-.169-.089-.104-.053-.019-.014zm.203.081a1.88 1.88 0 0 0-.167-.113c.1.07.1.083.064.073.107.067.184.111.103.04zm-3.865.088l-.071.104c-.112.088-.025-.003.071-.104z"/><path d="M338.093 29.533l-.035-.26c-.001.082.007.175.035.26zm-3.856.142v-.008l-.045.076zm7.325-1.534c-.065-.034-.135-.089-.204-.15.08.087.156.152.204.15zm-2.958-4.174l.092.094c-.013-.026.08.022.15.054l-.242-.148zm2.77 1.158c-.049-.034.002-.016-.048-.051l-.198-.104c-.002.033.147.137.246.155zM340 24.753c.352.204.246.109.195.046-.49-.288-.341-.168-.195-.046z"/><path d="M340.187 24.786c-.012-.018-.017-.031.005-.029-.197-.116-.047-.014-.005.029zm-1.216-.337c.094.045-.434-.286-.291-.203-.429-.287.489.401.291.203zm2.195.958l-.438-.242.339.22zm-.441.039l.144.027a.78.78 0 0 1-.14-.102c-.03.02-.13-.002-.004.075z"/><path d="M340.729 25.372c.017-.009.016-.029-.051-.08.001.011.006.036.051.08z"/><path d="M341.26 25.549l-.098-.04-.051.015zm-.927.285l.081.131c.133.11.226.162.184.103-.087-.084-.127-.14-.265-.234zm1.217.665c-.096-.045-.188-.11-.327-.198l.503.364-.176-.166zm-.004.246c.135.108.33.385.355.286-.13-.11-.203-.252-.355-.286zm-1.233.235l.006-.017-.691-.747zm.609 2.618c.228.146-.303-.55-.058-.345-.106-.217-.199-.168-.286-.359.079.25-.026.147.344.704z"/><path d="M340.578 28.895l-.055-.148c.019.063.038.109.055.148zm-6.534-6.193l.14-.163-.25.234zm-.637.417l.5-.414-.474.349c.029-.011.084-.033-.026.065zm2.976 8.11l.03-.153c.014-.169-.003-.186-.036-.22l.006.373zm-.966-.75l.012.02.151-.571zm-1.104.354c.025.038.12-.063.146-.026-.123.064.147-.643-.146.026zm-11.308.188c.04-.012-.372-.087-.445-.105.084.05.552.126.445.105zm.862.514l-.166-.041.4.134zm-.073.303c.703.124-.089-.136.171-.136l.161.025-.557-.145c.076.085.43.252.225.256zm-1.541-.177c.273.051.227.086.093-.017l-.069-.009c.001.007-.002.016-.024.026z"/><path d="M322.276 31.635c-.013-.035-.233-.031 0 0h0zm.124.178l-.233-.096c-.161-.028-.205-.001-.318-.041.123.071.284.1.551.137zm.499.155l-.098-.045c-.067-.012-.091-.011.098.045z"/><path d="M322.596 31.829l.206.094c.114.02.34.071-.073-.039.205.052.008-.003-.133-.055zm.111-.002c.156.012.259.003.49.099-.078-.101-.571-.199-.49-.099zm1.805.186l.211.013-.228-.08c.113.04-.202.021.017.067zm-2.527-.04l.587.125-.162-.067c-.105-.01-.205-.008-.425-.058z"/><path d="M322.572 32.098l.242.102c.04-.03-.079-.066-.242-.102zm1.099.056l-.518-.199.522.215zm-1.744-.04l-.335-.108.505.169zm.033.112c-.277-.089-.482-.104-.651-.165.044.038.279.124.491.202-.115-.055-.078-.068.16-.037z"/><path d="M322.107 32.382l-.308-.12a3.44 3.44 0 0 0 .308.12zm.616-.132l-.43-.074.419.088.011-.014z"/><path d="M322.726 32.268l-.014-.002a.19.19 0 0 1-.032.028l.046-.026z"/><path d="M322.726 32.247l-.003.003c.041.009.054.012.003-.003zm.542-.059c.228.083.463.197.83.227-.281-.088-.49-.104-.83-.227z"/><path d="M323.25 32.354l.106-.021-.384-.097.278.118z"/><path d="M323.375 32.409l-.125-.055-.04.009z"/><path d="M322.513 32.414c.175.066.185.091.207.122.088-.002.139-.017.145-.042-.13-.038-.36-.11-.352-.08zm.139-.061l.022.01c.036.006.049.007-.022-.01z"/><path d="M322.655 32.763l.076.018-.07-.021-.006.003zm.287-.254c.085.002-.014-.036-.139-.08.038.025.062.047.061.063.059.018.097.029.078.017zm-.659-.013l.235.031c-.132-.027-.341-.064-.235-.031zm.276-.157c-.109-.024-.065-.013 0 0z"/><path d="M322.559 32.339l.245.09c-.029-.02-.07-.042-.129-.067l-.116-.023zm2.709 1.271c-.378-.117-.715-.276-.293-.208-.271-.131-1.534-.455-2.243-.622.165.049.319.093.531.204.212.046.514.039.848.178.179.12-.149.013-.358-.016.481.112.668.285 1.366.48l-.229-.132c.108.03.275.103.378.116z"/><path d="M322.792 32.709l-.042-.031c-.072.001-.229-.027-.533-.086a3.25 3.25 0 0 0 .444.167l.076-.072.055.022z"/><path d="M322.77 32.598c.412.127.576.222 1.033.319-.014-.064-.337-.135-.508-.216.079.115-.226-.087-.478-.09-.066-.036-.084-.056-.098-.075a1.7 1.7 0 0 1-.201-.009l.026.005-.002-.001.007.002.054.014.164.051c-.093 0-.109-.026-.156-.047l-.062-.018-.005-.001.205.146c.064-.001.058-.027.021-.08zm2.216.081l-.098-.02c.05.018.085.029.098.02z"/><path d="M324.723 32.658c-.057-.021-.223-.067-.173-.08.131.011.2.048.339.08-.107-.041-.288-.119-.503-.125l.055.021c-.154.004-.689-.077-.745-.098l1.027.202z"/><path d="M323.849 32.672l.184.129.371.055-.217-.055c.096-.021-.173-.08-.338-.129zm-1.401.039l-.435-.136.607.219zm.029.104l-.379-.116.222.092zm-4.043 5.266l-.114.005c.036.003.075 0 .114-.005zm2.829 1.742l-.034-.192c.011.107.023.186.034.192zm.561-5.538l-.383-.313.321.291c-.051-.061-.011-.034.062.022zm.403 2.82l.064.115-.15-.388.086.273zm.708 1.651l-.172-.229c.052.084.108.161.172.229zm-5.25-1.733l-.44.061c.016.057.227-.017.44-.061zm4.667-3.365c-.163-.047-.232-.057-.259-.056.237.083.587.206.259.056z"/><path d="M322.832 36.732c-.077.013-.163.035-.255.065a1.24 1.24 0 0 0 .255-.065zm-.763-3.089l.097.036c-.06-.042-.106-.076-.073-.077-.177-.063-.288-.101-.024.041zm-4.472-.762l.052-.01c-.059.001-.062.004-.052.01zm4.37-1.101c.027.01.027.026.033.042.03-.008.027-.021-.033-.042zm.225 1.297c-.021-.024-.045-.018 0 0h0zm1.658.464l.197.074-.197-.074zm.55 1.456l-.002.001c.08.033.064.027.002-.001zm-2.012-1.879l-.13-.022c.033.008.075.015.13.022z"/><path d="M322.192 33.055h.045c-.068-.025-.111-.037-.045 0zm.014.05c-.003-.011.02-.012.052-.01l-.065-.019c.003.007.01.017.013.029zm-3.332 1.783l.039-.01c-.182-.008-.151.001-.039.01zm5.666 3.02l-.01-.018-.013-.009z"/><path d="M324.645 38.238c-.295-.455-.233-.419-.128-.357l-.829-.939.957 1.296z"/><path d="M318.18 37.607l-.356.176c-.641.087-.445-.041-.955.177 1.311-.356.212.256 1.515-.122l-.262.129c.01-.018-.067.003-.058-.014-.598.282.957-.22.801-.054a1.02 1.02 0 0 1-.431.18l.344-.016c-.019.033-.244.101-.227.067l.072.052 2.372 1.703.17-.222.057-.075.007.04-.054-.69c.075.181.013.145.058.309l.005-.342c.108.335.119.685.053.651.368 1.304-.01-.351.332.377l-.04.189c.229.736.23.447.445.887-.092-.235-.478-1.125-.467-1.478.049.093.095.131.073-.146.12.468.139.34.189.297l.162.619c.02-.197-.072-.509-.112-.797.085.042.237.513.372.909.147.064-.302-.74-.2-.894.163.208.157-.062.145-.457.132.191.11.375.19.542l-.104-.5c.018.007.063.157.086.233-.017-.201-.2-.607-.187-.792-.22-.672.489.938.31.14.087.159.128.371.223.6-.058-.549-.021-.408-.192-1.106l.247.347c-.252-.412-.395-.972-.536-1.422l-.256-.467-.067-.349c.053.091.14.293.237.542l-.05-.146c.129.201.273.541.398.877l-.198-.343.447 1.108c-.022-.071-.035-.135-.035-.174l.1.244c.032.06-.015-.074-.064-.231l.323.635-.112-.26.346.329-.636-1.99c.226.471.414.747.72 1.286-.364-.551.01.306-.146.234.078.039.207.304.242.401l-.126-.6c.243.444.219.315.365.475-.528-.853-.22-.635-.321-.926.181.284.346.584.226.555.481.601-.509-1.06-.101-.569-.013.019-.049-.018.036.131-.122-.28.099-.151.241.108l-.014.019c.184.012.366-.269-.153-.943l.718.958-.797-1.193-.848-1.152 1.828 2.228c.095.058.213.118.104-.124-.09-.061-.74-.759-.763-.827.603.559.329.294.884.734-.135-.092-.881-.958-.822-.958l.848.917-.335-.451-.349-.447c.123.167.664.685.911.883-.165-.144.1-.082.045-.19l-.228-.134c.232-.008-1.058-1.194-.943-1.24.168.162 1.046.977 1.206 1.007l-2.344-2.208.27.191-.265-.267c.686.526 2.033 1.76 2.498 2.312.239.119.31.235.348.141.264.166.329.337.322.374l.312-.067c-.536-.405-.423-.55-.882-.873l.207.299.197.31c-.524-.418-1.422-1.275-1.259-1.288.238.13.956.719 1.137.851-.173-.153-.272-.367-.129-.285l.255.256c.263.07-.646-.607-.07-.333.051-.002.778.38.446.161-.678-.359-2.671-1.646-3.148-1.973l1.008.469c.538.27 1.197.797 1.657 1.032a4.58 4.58 0 0 1-.395-.285c.15.053.482.304.446.198-.583-.354.117-.095-.482-.319-.138-.153.154.009.167-.074a12.75 12.75 0 0 1-1.435-.907l.451.22c.107-.068.415.013.475-.084.154.061.362.093.619.235-.102-.065-.305-.174-.309-.212.563.174.056.111.722.35-.36-.166-.467-.309-.677-.452-.568-.227-.144.056.059.205-.765-.347-1.548-.78-1.876-1.016-.169-.149.515.18.408.122.188-.085-1.328-.657-.725-.535.519.148 1.002.375 1.368.503.166.137-.354-.026-.35.022l.256.042c.159.084.269.179.115.144.465.136.18-.216.645-.186-.162-.082-.325-.178-.536-.231l.058.061c-.421-.112-.542-.261-.75-.285-.271-.145-.709-.339-.454-.32l.588.176c-.171-.053-.362-.073-.191.003-.25-.107.828.158.07-.115l-.42-.084c-.276-.133-.888-.383-.688-.379-.586-.151.063.034-.625-.136.853.229-.072.119.826.345-.797-.215-.355-.046-1.036-.227.192.063.372.108.265.112l.165.065-.015-.002.023.006c.027.011.034.014.008.002l.299.08c.433.167.395.228.612.331-.101-.007-.215-.088-.424-.146l.326.154c-.425-.147-.724-.195-.951-.336l-.036.038c-.246-.061-.352-.064-.184.026-.098-.016.443.236.123.088l.232.176-.104-.042c-.077.036.632.47-.146.185.093.063.206.144.074.117l-.351-.167c.107.083-.379-.122-.025.075-.931-.478-.244-.026-.423-.081l.433.265c-.037.011.074.11.229.258l.376.243c.292.249-.322-.111-.31-.052-.136-.104-.093-.084-.003-.03-.841-.577.504.538-.108.122.117.115.068.087-.022.02 0-.002-.005-.008-.016-.018l-.195-.146.188.148c.001.014.034.062.108.149l-.358-.32c-.129-.101.169.175.44.414l.199.216c-.57-.525.159.22-.442-.346.286.298.165.27.732.895-.076-.08-.117-.115-.113-.127-.085-.057-.166-.117-.023.073l-.414-.452.503.648c-.27-.263-.412-.428-.699-.8l.541.833-.242-.313c-.004.022.286.468.079.215-.484-.59-.227.085-.713-.483.597 1.005-.304-.435.133.356l-.326-.587c.077.261-.266-.36.044.336l-.248-.511c.023.055.093.221.016.076s-.096-.211-.143-.321c-.015.058.341.83.674 1.555-.193-.326-.181-.273.006.218-.118-.232-.243-.474-.245-.578-.04-.023-.266-.292-.031.303-.067-.147-.047-.028-.027.043-.062-.009-.085-.061-.124.01l.052.094c.236.732.007.175-.011.275l-.024-.075c-.286-.498.032.267-.27-.309l.15.456c.295.988-.28-.554-.225-.161l.1.257c.057.35-.479-1.323-.533-1.442-.029-.085-.028-.142-.038-.208-.227-.568.155.609.134.767l-.254-.889c-.075-.264.153 1.1-.047.482.067.252.138.502.151.703-.018.067-.146-.335-.196-.417l2.352 1.365c.044-.038-.01-.042-.293.034l.192-.072c-.211.029-.365-.011-.798.096 1.578-.512-.834-.015.634-.438l-.107-.091.152-.038c.079-.096-.281-.028-.644.035.096-.043.237-.065.315-.083.271-.183.208-.169-.558-.09l.48-.121c-.289.035.719-.317.126-.299l.222-.033c-.612-.007 1.301-.52-.484-.253l-.449-.011c-.124.135-.774.111-1.064.208-.111-.031.521-.208.62-.166l-.088.023c.932-.131.312-.193.945-.288-.074-.208.416-.479.43-.669l-.724.1.032-.075c.167-.036.565-.081.542-.03.409-.067-.355-.046-.515-.033.282-.124.854-.044.867-.076l-.06-.033-.084.017c-.302-.003-.617.023-.59-.04.141-.05.447-.058.474-.075.051-.004.075-.011.018-.023l.058-.095-.574.083c-.285-.018.026-.089-.624.005 1.003-.142.345-.373.655-.433-.423-.031-.418-.09-.371-.163-.119.024-.767.07-.69.003 1.339-.047.575-.144 1.536-.236-.637.072-.166-.162-1.069-.057.105-.056.5-.023.813-.074-.524-.101.324-.271.143-.409-.176.001-.444.033-.707.005l.879-.099c-.086-.028-1.015-.009-.405-.076-.147.011-.371.027-.427.007.854-.314-.707-.617.901-.936-.341.043-.374.016-.388-.016-.081.021-.434.001-.673.007l.662-.132c-.662-.021-.046-.138-.679-.15l.114.041c-.747-.054-1.659.08-2.617.075.85.06-1.256.172-.04.271-.195.024-.309-.018-.53-.004.41.024.496.055.313.116l-.102-.006c.102.166-.303.24-.571.432l.474-.02c-.063.041-.212.051-.33.072.719.036.04-.113.832-.082-.964.066-.013.282-1.107.337-.006.063.548-.028.542.034l-.296.022.382.009c-.063.042-.434.069-.685.076.03-.011-.07-.027-.092-.037-.349.06.119.146.007.168l.182-.064c.282.167-.094.404.516.552l.223-.022c.42.111-.24.114-.042.249l-.054-.002c.224.018.338.049.314.089-.263-.022-.505.096-.796.064.45.118.352.052 1.186.094l-.369.043c.336.011.513.002.611.064-.32-.036-.562.082-.984.045-.801.208.828.163-.352.319 1.027-.01.563-.172.783-.15.333-.055.768-.001.667.051-.02.047-1.308.18-1.276.304.003-.013-.074-.007-.071-.021-.255.071.365.062-.051.158.622-.026-.026.079.763.011l-.196-.095c.214.047 1.144.012.71.157-.16.009-.373 0-.492-.009-.229.054.161.042-.073.099-.789.074-.189-.119-.799-.131-.329.068.588.078-.271.128 1.092-.061-.12.143.719.138l-.473.048c.076.005.303.008.294.034l-.617.025c.53.01-.438.193-.146.229-.033-.144.563-.103.899-.205.652.089-1.219.253-.966.428-.07-.019.269-.141.492-.128-.092.05-.266.125-.509.184.115.119.48-.089.776-.075-.566.127.241.03.432.056l-.477.072c-.286.194.998-.115.646.07l-.668.051.181.041-.544.074c.412.011.312.049.17.15.333-.075.864-.139.888-.08-.276.093-.455.056-.375.134-.3.033-.676.076-.244-.042l-.455.054c-.317.106-.057.137-.047.17.016-.017.039-.037.105-.057l.68.012a1.8 1.8 0 0 1-.464.075c.058.019.28-.004.331.028-.388.064-.784.146-.98.119l.461.052c-.165.042-.442.163-.588.174-.206.127.79.029.518.191.075-.012.148-.018.209-.009-.064.11-.51.31.04.29l-.665.236c.177.047.837-.303 1.129-.229.242.04-.57.19-.75.275.356-.038 1.072-.148.545.097-.137.011-.044-.041-.101-.055zm3.377 1.917c.003.104.031.42-.05.147-.103-.544-.026-.291.05-.147zm1.193-1.641c.056.15-.001.09-.103-.064 0-.044.028-.037.103.064zm-.253-4.503a.1.1 0 0 1 .021.01c-.184-.041-.112-.024-.021-.01zm.217.018c-.061-.029-.124-.051-.188-.072.113.046.116.062.079.063.12.04.205.063.109.009zm-.64.944l-.124.024c-.142-.018-.015-.02.124-.024z"/><path d="M322.854 38.564l-.115-.235c.025.078.062.164.115.235zm-5.088-1.552l.005-.005-.086.016zm8.115-.757c-.07-.017-.151-.051-.233-.092.1.063.19.106.233.092zm-3.836-3.398l.106.069c-.017-.022.087.004.163.019l-.269-.088zm2.965.464c-.055-.023-.002-.017-.058-.04l-.217-.059c.006.034.174.105.275.099zm-1.424-.027c.389.117.265.047.201-.007-.542-.168-.371-.081-.201.007z"/><path d="M323.776 33.276c-.016-.015-.023-.028-.002-.032-.216-.07-.048-.002.002.032zm-1.289-.039c.103.023-.486-.18-.328-.131-.482-.185.561.283.328.131zm2.384.425l-.482-.135.381.138zm-.44.148l.15-.007c-.079-.026-.124-.048-.156-.067-.029.025-.135.027.006.074z"/><path d="M324.425 33.735c.016-.013.011-.032-.064-.066.001.01.01.034.064.066z"/><path d="M324.993 33.782l-.105-.015-.049.026zm-.855.539l.111.112c.155.074.258.1.203.051-.105-.061-.158-.107-.314-.163zm1.337.338c-.103-.021-.207-.061-.363-.113l.575.232-.212-.119zm.063.244c.157.072.418.291.415.189-.154-.073-.262-.195-.415-.189zm-1.167.567l.001-.019-.867-.534zm1.27 2.34c.26.071-.448-.442-.153-.318-.165-.179-.24-.102-.378-.261.147.218.015.15.531.579z"/><path d="M325.109 37.23l-.095-.127.095.127zm-2.596-5.62l.212-.046-.342.03zm-.756-.088l.648-.011-.587-.027c.029.01.085.031-.061.038zm.297 9.223l-.035-.153c-.053-.16-.071-.168-.108-.186l.143.339zm-4.244-2.543l-.01.017.554-.201zm-.898-.47c-.017.035.118.035.102.069-.118-.035.603-.263-.102-.069zm-4.207 3.064c.029.025-.206-.322-.247-.385.038.085.308.476.247.385zm.353.897l-.088-.147.195.372z"/><path d="M312.892 41.785c.375.607.001-.136.158.065l.089.136-.284-.5c.015.098.162.456.037.299zm-.841-1.296c.141.241.104.219.059.066l-.037-.059c-.002.005-.006.007-.022-.007z"/><path d="M312.072 40.496c.003-.025-.123-.199 0 0h0zm.017.177l-.103-.229c-.082-.142-.114-.165-.166-.273.049.13.129.272.269.502zm.23.471l-.04-.099c-.034-.06-.048-.079.04.099z"/><path d="M312.194 40.837l.085.208c.058.1.169.303-.028-.076.1.186.007.005-.057-.132z"/><path d="M312.258 40.925c.085.13.147.206.247.435-.009-.11-.261-.545-.247-.435zm.995 1.505l.124.169-.104-.217c.051.108-.133-.145-.02.048zm-1.421-2.031l.273.534-.073-.159-.2-.375z"/><path d="M312.105 40.934l.105.239c.026.022-.028-.09-.105-.239zm.587.911l-.223-.507.219.518zm-.887-1.453l-.146-.321.218.486zm.011.063l-.267-.619.2.49c-.044-.118-.031-.088.067.129z"/><path d="M311.868 40.633l-.118-.308.118.308zm.289.482l-.192-.389.186.385.006.004z"/><path d="M312.156 41.125l-.006-.013-.021-.017c.004.004.012.012.027.03z"/><path d="M312.159 41.117l-.002-.001c.019.037.026.05.002.001zm.29.425c.099.22.191.459.383.771l-.383-.771z"/><path d="M312.397 41.596l.061.079-.175-.356.114.277z"/><path d="M312.447 41.723l-.05-.127-.022-.03z"/><path d="M312.036 40.997c.067.174.066.192.071.224.039.075.065.112.072.107l-.143-.331zm.072.097c.003.009.005.014.009.023a.3.3 0 0 0-.009-.023z"/><path d="M312.037 41.252l.027.073-.024-.07-.003-.003zm.176.149c.039.073.002-.025-.048-.148.013.042.02.07.015.076l.033.072zm-.284-.574l.094.216-.094-.216zm.138.183c-.046-.102-.027-.061 0 0z"/><path d="M312.067 41.01l.098.243-.048-.135-.05-.108zm.812 2.887c-.117-.377-.203-.747-.03-.357-.065-.298-.536-1.523-.784-2.214l.167.55c.074.206.213.46.313.811.032.212-.075-.12-.156-.313.173.465.183.716.407 1.409l-.038-.263.121.377z"/><path d="M312.104 41.351l-.012-.049c-.03-.063-.09-.209-.2-.501l.147.455.046.039.019.056z"/><path d="M312.117 41.288l.379 1.02c.018-.042-.112-.347-.168-.528.005.117-.08-.229-.192-.446l-.028-.113-.085-.178.01.025v-.001l.002.006.021.052.062.161c-.04-.08-.042-.104-.059-.153l-.023-.06-.002-.005.061.234c.024.054.028.038.022-.014zm1.109 1.866l-.048-.088c.02.049.035.082.048.088z"/><path d="M313.084 42.934c-.022-.056-.097-.212-.063-.179.07.11.094.185.157.311-.042-.107-.111-.291-.23-.465l.022.055c-.09-.121-.349-.594-.37-.649l.484.927z"/><path d="M312.606 42.231l.045.214.169.333-.09-.206c.06.069-.057-.182-.124-.341zm-.641-1.183l-.148-.435.2.619zm-.007.065l-.121-.383.068.234zm-4.869 3.44l-.095.059a.51.51 0 0 0 .095-.059zm.122.167l.134-.143c-.079.074-.135.131-.134.143zm4.094-3.405l.078-.54-.081.468c.02-.082.015-.029.003.072zm-1.756 2.405l-.054.121.213-.378-.159.257zm-.846 1.582l.088-.271c-.036.092-.066.182-.088.271zm-2.62-1.395l-.374.231c.031.051.197-.105.374-.231zm5.633-2.53l-.047-.268c.032.258.084.644.047.268z"/><path d="M310.372 41.112l-.195.201.195-.201zm1.276.004l.013.106c0-.078-.001-.14.008-.112-.024-.193-.038-.311-.021.006zm-6.513-.854l.049-.017c-.058.011-.06.014-.049.017zm4.177-1.522c.027.002.029.013.037.022.028-.01.024-.017-.037-.022zm2.501 2.226c-.001-.03-.01-.049 0 0h0zm.456 1.688l.048.21-.048-.21zm-.568 1.322h0c.007.083.005.067 0 0zm.166-2.817l-.037-.126.037.126z"/><path d="M311.817 40.956l.014.04c-.017-.072-.027-.117-.014-.04z"/><path d="M311.812 40.991c.002-.008.009.012.019.042l-.017-.067c-.001.006-.001.014-.002.025zm-5.146.556l.037-.018c-.176.041-.145.04-.037.018zm3.228 4.353l.008-.02v-.015z"/><path d="M309.717 46.195c.188-.509.188-.445.186-.33l.306-1.208-.492 1.538z"/><path d="M306.702 44.246l-.247.322c-.527.367-.409.157-.771.588 1.015-.913.292.151 1.275-.794l-.177.238c.001-.02-.057.035-.056.015-.405.536.738-.647.66-.429a1.17 1.17 0 0 1-.298.367l.286-.185c-.002.037-.166.207-.166.17l.162.01-.026.029.503-.461c-.107.168-.104.099-.211.232l.26-.204c-.21.289-.47.51-.472.437-.839 1.079.261-.221-.147.49l-.16.083c-.46.627-.238.454-.474.893.134-.217.64-1.064.911-1.27-.05.095-.059.155.139-.032-.299.38-.195.317-.143.332l-.392.507c.155-.104.348-.369.543-.577.004.093-.278.504-.512.855.024.149.409-.688.575-.713-.076.249.125.072.409-.192-.078.217-.223.321-.308.485l.318-.397c.003.017-.085.146-.13.212.14-.142.35-.535.488-.646.379-.591-.439.952.035.314-.076.168-.205.333-.325.55.352-.39.266-.268.676-.845l-.139.402c.182-.448.509-.916.758-1.311l.239-.528.224-.31c-.047.107-.16.322-.304.581l.087-.146c-.104.258-.277.583-.455.889l.155-.364-.578 1.042c.039-.063.078-.114.105-.14l-.127.231c-.028.062.045-.059.132-.198l-.304.645.132-.25-.083.461 1.089-1.756-.576 1.355c.225-.62-.202.208-.217.05.005.081-.123.346-.175.435l.357-.484c-.201.464-.124.362-.172.571.359-.933.345-.585.502-.855-.117.314-.252.63-.285.534-.202.727.509-1.067.34-.45-.017.003-.006-.048-.071.11.137-.27.133-.022.018.249l-.017.002c.059.145.305.105.552-.708l-.358 1.141.481-1.35.321-.988.145-.477-.804 2.869c-.003.104.002.227.119-.014.007-.104.223-1.027.259-1.089l-.153 1.11c.011-.156.303-1.265.324-1.225l-.288 1.215.336-1.083a11.71 11.71 0 0 0-.244 1.245c.034-.217.087.034.137-.071l.006-.262c.086.184.391-1.537.46-1.476-.045.231-.258 1.414-.221 1.553l.311-1.642.294-1.674-.031.354.08-.407-.278 1.876-.337 1.631c.008.258-.042.384.031.355-.014.306-.101.464-.126.482l.151.199c.071-.668.203-.67.249-1.229l-.247.694c.083-.666.316-1.897.382-1.784 0 .267-.125 1.193-.146 1.417.038-.23.14-.441.137-.278l-.074.359c.048.253.16-.891.19-.25.021.042.037.867.06.468l.052-1.934.096-1.887.049 1.18c.021.628-.076 1.458-.062 1.978.006-.185.031-.416.041-.49.021.154-.021.573.036.481.015-.687.105.041.028-.583.048-.204.051.132.109.092-.021-.438.021-1.511.042-1.742l.028.524c.079.044.144.345.226.334.021.164.08.355.09.652.002-.123-.009-.357.016-.378.114.579-.053.104.059.804-.034-.398.021-.56.027-.818-.084-.605-.094-.099-.111.158l-.116-2.196c.01-.23.093.556.083.43.115.117-.173-1.531-.02-.929l.281 1.473c-.008.224-.128-.322-.148-.291l.077.247c.018.187.007.337-.034.184.108.477.192.028.376.435-.023-.183-.04-.37-.103-.583l-.009.084c-.117-.426-.094-.614-.168-.806-.041-.315-.139-.797-.046-.566l.168.602c-.049-.176-.119-.352-.082-.163-.06-.272.281.794.081 0l-.141-.408-.153-.775c-.189-.577.021.061-.202-.614.264.856-.048-.022.224.88-.235-.803-.12-.333-.308-1.022l.063.287.04.178-.004-.015.006.023c.007.03.009.037.003.008l.081.303c.105.463.068.461.109.707-.034-.092-.046-.234-.1-.448l.062.367-.215-1.013-.02-.015c-.059-.251-.083-.35-.057-.155-.021-.097.065.514.014.152l.018.295-.017-.115c-.022-.05.019.793-.091-.046.002.12 0 .268-.024.138l-.025-.408c-.005.146-.041-.405-.03.024-.033-1.106-.032-.236-.049-.429l-.014.543c-.012-.028-.027.125-.059.346l-.025.481c-.049.397-.033-.339-.061-.288.021-.185.021-.137.017-.026.089-1.09-.166.8-.104.006-.034.177-.032.118-.018-.004 0-.002.002-.011.006-.025l.029-.264-.034.26c-.007.01-.025.069-.057.189l.088-.521c.023-.177-.056.261-.12.653l-.072.312c.151-.839-.087.279.081-.616-.096.435-.116.322-.338 1.234l.045-.183c.008-.106.021-.211-.058.044l.158-.656-.26.877c.082-.402.144-.634.294-1.136l-.372 1.043.128-.42c-.017.013-.216.566-.116.217.231-.803-.127-.161.098-.906-.491 1.203.2-.549-.196.373l.296-.685c-.149.26.172-.458-.205.296l.272-.566c-.029.059-.121.236-.044.07l.174-.348c-.035.039-.459.879-.857 1.667.167-.386.136-.335-.148.169l.327-.613c.004-.046.133-.409-.214.202.085-.159.01-.059-.034.009-.006-.059.024-.115-.036-.08l-.052.104c-.452.713-.124.14-.2.207l.047-.072c.279-.554-.187.222.149-.396l-.292.436c-.643.921.326-.587.058-.258l-.165.253c-.246.287.863-1.274.947-1.386l.143-.176c.383-.542-.414.54-.529.642l.609-.792c.188-.227-.775.884-.346.329l-.502.582c-.088.05.665-.83.061-.196l.146-.163c-.164.154-.287.227-.627.551 1.234-1.242-.685.473.481-.63l-.092.014.123-.106c.063-.094-.232.145-.534.375.078-.077.196-.166.261-.219.218-.249.175-.196-.474.233l.405-.313c-.248.158.616-.53.111-.23l.191-.122c-.53.257 1.151-.814-.437.099l-.407.181c-.102.13-.697.376-.952.551-.106.017.455-.34.55-.351l-.078.049c.839-.446.268-.236.843-.531-.08-.082.367-.372.382-.447l-.685.26.027-.056c.157-.069.536-.205.516-.167.387-.153-.341.068-.492.118.264-.155.813-.257.824-.282l-.058-.004-.08.033c-.287.079-.589.179-.564.131.133-.069.426-.153.45-.171.049-.016.071-.026.016-.02l.046-.067-.545.196c-.278.063.014-.061-.603.162.952-.34.286-.312.58-.423-.417.078-.421.039-.384-.017-.113.041-.741.21-.674.147 1.303-.313.547-.219 1.477-.479-.614.18-.178-.074-1.051.181.098-.059.487-.118.789-.215-.523.038.291-.245.1-.299l-.693.139.85-.229c-.088 0-.998.185-.408.029l-.419.083c.802-.348-.763-.297.791-.756-.333.08-.369.067-.385.049-.078.026-.43.067-.664.107l.64-.187c-.656.084-.06-.083-.687 0l.117.011c-.745.07-1.633.296-2.581.435.847-.083-1.221.319-.008.208-.189.048-.307.035-.524.079.408-.045.497-.036.322.039l-.101.012c.12.109-.271.23-.512.425l.465-.096c-.058.042-.202.075-.316.111.712-.096.025-.093.81-.204-.94.215.019.212-1.047.451.005.05.535-.12.539-.071l-.287.071.377-.063c-.055.043-.415.134-.66.185.027-.014-.074-.008-.097-.013-.333.113.143.096.034.133l.169-.085c.3.075-.043.326.572.316l.216-.061c.424-.001-.222.134-.012.194l-.053.009c.221-.033.336-.033.317.001-.261.036-.479.178-.77.213.463.003.354-.028 1.177-.173l-.353.113c.33-.064.501-.11.608-.085-.319.043-.534.188-.953.253-.743.349.835-.061-.283.338.995-.25.515-.268.733-.302.314-.119.747-.181.657-.119-.013.039-1.235.452-1.187.546.001-.011-.072.012-.071.001-.237.12.357-.042-.031.139.594-.176-.017.07.732-.183l-.198-.025c.212-.016 1.098-.282.696-.06-.152.049-.356.097-.472.121-.212.102.156-.011-.058.099-.752.258-.194-.046-.782.097-.308.138.573-.086-.244.171 1.035-.331-.095.153.718-.06l-.444.165c.074-.014.293-.069.291-.043l-.589.182c.513-.127-.372.303-.08.264-.07-.134.513-.251.812-.437.641-.1-1.105.57-.816.679-.072 0 .219-.216.435-.266a2.36 2.36 0 0 1-.435.328c.14.085.431-.229.714-.302-.502.292.235-.044.418-.082l-.43.218c-.221.276.905-.428.617-.146l-.608.268.177-.02-.487.249c.388-.123.299-.054.197.091.287-.185.765-.43.803-.389-.228.182-.405.214-.306.254-.267.141-.604.313-.24.052l-.408.21c-.26.211-.003.15.017.177.009-.021.023-.049.078-.092l.631-.239c-.144.115-.273.181-.401.242.057-.004.252-.108.305-.097-.333.206-.67.431-.855.476l.43-.119c-.138.102-.354.324-.482.39-.147.207.716-.271.516-.009a.74.74 0 0 1 .182-.092c-.027.127-.369.514.114.261l-.507.503c.173-.033.636-.638.918-.699.225-.072-.437.422-.564.579.303-.188.884-.614.511-.154-.114.067-.051-.023-.106-.009zm.857.523c-.076.066-.303.28-.131.05.368-.412.209-.197.131-.05zm1.667-.169c-.079.138-.062.058.003-.115.03-.029.036-.005-.003.115zm2.61-3.218l.004.024c-.045-.187-.028-.113-.004-.024zm.063.203l-.04-.204c.023.124.02.134.007.102.027.127.047.214.033.102zm-2.208-1.253l-.117.047c-.137.025-.016-.009.117-.047z"/><path d="M308.803 45.12l.114-.236c-.043.069-.087.151-.114.236zm-2.652-1.256l.004-.006-.072.049zm5.292 2.075a1.4 1.4 0 0 1-.027-.246c-.004.12.002.218.027.246zm.359-5.205l.024.126c-.002-.025.028.078.052.152l-.076-.278zm1.108 2.789c-.016-.058.008-.011-.009-.069l-.08-.211c-.013.023.034.201.089.28zm-.648-1.225c.117.397.095.255.088.173-.166-.553-.124-.362-.088-.173z"/><path d="M312.349 42.457c0-.021.002-.034.012-.017-.067-.222-.02-.044-.012.017zm-.478-1.152c.027.103-.112-.52-.074-.355-.108-.52.111.635.074.355zm.788 2.293l-.151-.486.102.4zm-.276-.295l.069.125c-.021-.083-.029-.133-.034-.172-.025-.01-.071-.1-.035.047z"/><path d="M312.418 43.255c.014.006.021-.009.007-.092-.005.007-.013.028-.007.092z"/><path d="M312.647 43.763l-.039-.097-.037-.025zm-.65-.422l-.02.162c.017.179.041.285.048.208-.005-.127 0-.201-.028-.37zm.334 1.331c-.031-.098-.05-.208-.082-.369l.095.615-.013-.246zm-.133.196c.019.173-.021.521.048.458-.015-.173.021-.333-.048-.458zm-.798-.628l.013-.009.032-1.074zm-1.047 2.426c.045.254.125-.617.148-.304.057-.235-.019-.255.035-.457-.088.242-.091.097-.183.761z"/><path d="M310.536 45.904l.048-.149-.048.149zm-.702-7.354l.205-.059-.336.068zm-.758.053l.642-.1-.584.065c.029.004.087.009-.058.035zm-2.219 7.304l.1-.121c.097-.14.095-.16.091-.2l-.191.321zm-.253-.948v.02l.395-.444zm-.975-.043c0 .041.12-.018.119.023-.12.017.435-.509-.119-.023z"/></g><path d="M322.734 295.756c-7.519-.301-15.812 3.066-21.384 8.205-7.06 6.511-3.296 20.911 5.884 23.715 0 0 9.903 1.187 20.306-3.327a27.64 27.64 0 0 0 4.029-1.613l5.647-2.337c10.511-24.911-.489-51.911-4.645-77.085-1.089-2.469-2.55-4.675-4.489-6.515s-4.355-3.312-7.355-4.312c-12-4-20 12-17.704 22.907" class="B C D F"/><path d="M126.561 223.923h164.192v3.344H126.561z" fill="#e92f8b"/><path d="M228.338 223.217c13.859-4.53 13.649 5.09 13.649 5.09-45.3 33.689-87.82 69.75-131.92 103.439l-1.08-5.64-1.87-4.94-2.06-4.72 123.281-93.229z" class="G"/><g class="B C D"><path d="M110.067 331.747l131.92-103.439s.21-9.62-13.649-5.09l-123.28 93.23 2.06 4.72 1.87 4.94 1.079 5.639z" class="F"/><g stroke-width="3"><path d="M293.389 224.63h15.1v-31.056"/><path d="M294.728 218.612s30.75.625 30.75 0v-34.284"/></g><use xlink:href="#B"/></g><g class="E"><path d="M237.985 121.719v2.586l6.95 7.023v-2.921"/><path d="M251.548 121.719v3.505l-6.613 6.104v-3.512z"/></g><use xlink:href="#C" class="B C D"/><g class="E"><path d="M249.296 110.742l-.025 2.586 6.877 7.092.03-2.921"/><path d="M262.858 110.878l-.035 3.505-6.675 6.037.036-3.511z"/></g><use xlink:href="#C" x="10.887" y="-10.41" class="B C D"/><g class="E"><path d="M260.183 100.333l-.026 2.585 6.878 7.093.029-2.921"/><use xlink:href="#D"/></g><use xlink:href="#C" x="22.307" y="-20.916" class="B C D"/><g class="E"><path d="M271.604 89.826l-.026 2.586 6.878 7.093.029-2.922"/><use xlink:href="#E"/></g><use xlink:href="#C" x="32.996" y="-31.33" class="B C D"/><g class="E"><path d="M282.293 79.414L282.268 82l6.878 7.092.029-2.921"/><path d="M295.855 79.55l-.035 3.505-6.674 6.037.035-3.511z"/></g><use xlink:href="#C" x="43.975" y="-41.787" class="B C D"/><g class="E"><path d="M293.272 68.957l-.025 2.585 6.878 7.093.029-2.921"/><use xlink:href="#D" x="33.09" y="-31.376"/></g><use xlink:href="#C" x="57.173" y="-53.954" class="B C D"/><g class="E"><use xlink:href="#F"/><use xlink:href="#E" x="34.867" y="-33.036"/></g><use xlink:href="#C" x="68.182" y="-41.76" class="B C D"/><g class="E"><use xlink:href="#G"/><path d="M331.042 69.121l-.035 3.504-6.675 6.038.035-3.512z"/></g><use xlink:href="#C" x="80.948" y="-30.46" class="B C D"/><g class="E"><path d="M330.245 80.284l-.025 2.586 6.878 7.093.029-2.921"/><path d="M343.808 80.421l-.036 3.505-6.674 6.037.035-3.512z"/></g><use xlink:href="#B" x="12.047" y="11.768" class="B C D"/><g class="E"><path d="M250.032 133.486v2.586l6.949 7.023v-2.922"/><path d="M263.595 133.486v3.505l-6.614 6.104v-3.512z"/></g><use xlink:href="#C" x="12.047" y="11.766" class="B C D"/><g class="E"><path d="M261.343 122.508l-.026 2.586 6.878 7.093.03-2.921"/><use xlink:href="#E" x="-10.261" y="32.682"/></g><use xlink:href="#C" x="22.934" y="1.356" class="B C D"/><g class="E"><use xlink:href="#G" x="-45.25" y="43.115"/><use xlink:href="#E" x="0.626" y="22.273"/></g><use xlink:href="#C" x="34.354" y="-9.15" class="B C D"/><g class="E"><use xlink:href="#H"/><use xlink:href="#D" x="23.468" y="1.26"/></g><use xlink:href="#C" x="45.043" y="-19.563" class="B C D"/><g class="E"><path d="M294.34 91.18l-.026 2.586 6.878 7.093.03-2.921"/><use xlink:href="#I"/></g><use xlink:href="#C" x="56.022" y="-30.02" class="B C D"/><g class="E"><use xlink:href="#G" x="-12.16" y="11.739"/><use xlink:href="#E" x="33.716" y="-9.103"/></g><use xlink:href="#B" x="24.094" y="23.731" class="B C D"/><g class="E"><path d="M262.079 145.448v2.586l6.949 7.023v-2.922"/><path d="M275.642 145.448v3.505l-6.614 6.104v-3.512z"/></g><use xlink:href="#C" x="24.095" y="23.727" class="B C D"/><g class="E"><path d="M273.39 134.47l-.026 2.586 6.878 7.093.029-2.921"/><use xlink:href="#E" x="1.786" y="44.644"/></g><path d="M348.925 74.929l-6.035-6.159 15.521-15.399 6.035 6.159z" class="B C D"/><g class="E"><use xlink:href="#H" x="58.579" y="-32.829"/><path d="M365.136 59.557l-.035 3.505-16.019 15.38-.06-3.416z"/></g><path d="M348.688 96.357l-6.035-6.158L358.175 74.8l6.035 6.159z" class="B C D"/><g class="E"><path d="M341.993 90.192l-.025 2.586 6.878 7.093.029-2.921"/><path d="M364.899 80.985l-.035 3.505-16.018 15.381-.06-3.416z"/></g><use xlink:href="#C" x="34.981" y="13.318" class="B C D"/><g class="E"><use xlink:href="#G" x="-33.203" y="55.077"/><use xlink:href="#E" x="12.673" y="34.235"/></g><use xlink:href="#C" x="46.401" y="2.812" class="B C D"/><g class="E"><use xlink:href="#H" x="12.047" y="11.962"/><use xlink:href="#D" x="35.515" y="13.222"/></g><path d="M293.752 150.945l-6.035-6.158 36.712-36.59 6.035 6.159z" class="B C D"/><g class="E"><path d="M287.057 144.78l-.026 2.586 6.878 7.093.029-2.921"/><path d="M325.478 119.525l-1.117 5.629-30.452 29.305.035-3.512z"/></g><use xlink:href="#C" x="57.09" y="-7.602" class="B C D"/><g class="E"><use xlink:href="#F" x="-0.084" y="46.352"/><use xlink:href="#E" x="34.783" y="13.316"/></g><use xlink:href="#C" x="68.07" y="-18.059" class="B C D"/><g class="E"><use xlink:href="#G" x="-0.113" y="23.701"/><use xlink:href="#E" x="45.763" y="2.859"/></g><g class="B C"><path d="M327.54 56.469c.874 19.558 3.511 39.881.253 59.339-2.632 15.716-6.632 22.482-19.899 34.028l-22.102 21.767c3.686.721 8.395-.679 11.771-1.023s23.231-7.104 34.368-26.682a99.92 99.92 0 0 0 3.386-8.29c8.131-25.784 8.131-53.784 3.328-81.075" class="F G"/><use xlink:href="#B" x="123.008" y="-50.998" class="D"/></g><g class="E"><path d="M360.985 70.719v2.586l6.95 7.023v-2.921"/><path d="M374.548 70.719v3.505l-6.613 6.104v-3.512z"/></g><use xlink:href="#C" x="122.997" y="-51.004" class="B C D"/><g class="E"><path d="M372.296 59.742l-.025 2.586 6.877 7.092.03-2.921"/><path d="M385.858 59.878l-.035 3.505-6.675 6.037.036-3.511z"/></g><use xlink:href="#C" x="133.884" y="-61.414" class="B C D"/><g class="E"><path d="M383.183 49.333l-.026 2.585 6.878 7.093.029-2.921"/><use xlink:href="#D" x="123" y="-51"/></g><use xlink:href="#C" x="111.874" y="-63.35" class="B C D"/><g class="E"><use xlink:href="#F" x="54.702" y="-9.395"/><use xlink:href="#I" x="66.833" y="-43.785"/></g><use xlink:href="#C" x="122.76" y="-73.759" class="B C D"/><g class="E"><path d="M372.06 36.986l-.026 2.586 6.878 7.093.029-2.922"/><path d="M385.622 37.123l-.035 3.504-6.675 6.038.035-3.512z"/></g><use xlink:href="#B" x="100.954" y="-75.332" class="B C D"/><g class="E"><path d="M338.932 46.387v2.586l6.949 7.023v-2.921"/><path d="M352.494 46.387v3.505l-6.613 6.104v-3.512z"/></g><use xlink:href="#C" x="100.943" y="-75.335" class="B C D"/><g class="E"><use xlink:href="#H" x="66.592" y="-66.183"/><use xlink:href="#D" x="90.06" y="-64.923"/></g><use xlink:href="#C" x="111.829" y="-85.745" class="B C D"/><g class="E"><path d="M361.129 25l-.025 2.586 6.877 7.093.03-2.921"/><use xlink:href="#I" x="66.789" y="-66.18"/></g><use xlink:href="#B" x="89.831" y="-87.68" class="B C D"/><g class="E"><path d="M327.809 34.041v2.585l6.949 7.023v-2.921"/><path d="M341.371 34.041v3.504l-6.613 6.104v-3.511z"/></g><use xlink:href="#C" x="89.82" y="-87.681" class="B C D"/><g class="E"><use xlink:href="#G" x="21.64" y="-45.921"/><path d="M352.682 23.2l-.036 3.505-6.674 6.037.035-3.512z"/></g><use xlink:href="#C" x="100.706" y="-98.091" class="B C D"/><g class="E"><use xlink:href="#F" x="43.535" y="-44.136"/><path d="M363.568 12.791l-.035 3.504-6.675 6.038.036-3.512z"/></g><g fill="#fff" class="B C F"><path d="M325.449 78.549L311.678 55.12l-6.219-8.479-4.587-1.604s-4.199-5.303 1.755-10.291l2.459-.873s-5.127-7.416 4.228-12.414c-.982-1.763-1.672-7.777 7.2-9.627 5.89-1.308 12.431 3.719 15.73 5.698 13.751-9.221 23.008 12.512 24.73 15.762 3.202 6.043-2.158 25.27-2.158 25.27s-11.361 20.442-29.367 19.987z"/><path d="M304.569 33.473s8.588 1.797 10.913 3.467c2.031 1.458 5.914 8.063 5.914 8.063M309.31 21.456s10.354 3.172 13.153 5.355c2.464 1.921 7.393 10.08 7.393 10.08m2.8-18.797l7.985 10.886M319.81 63.622c-3.719 3.928-6.52 9.277-1.667 13.667 3.689 3.337 23.344 6.565 30 2.591 7.433-4.437 7.769-14.437 2.76-18.182"/></g><g fill="#e9dcb8" class="B F"><circle cx="269.958" cy="190.969" r="8.64"/><circle cx="293.403" cy="185.705" r="5.051"/></g><g class="C B F"><path d="M137.421 194.413c-8.317-1.672-15.096-5.622-22.157-10.683a47.13 47.13 0 0 1-4.666-4.165 50.8 50.8 0 0 1-4.312-5.019c-3.952-5.243-7-11.196-8.936-17.507-1.38-4.5-1.461-14.833-6.825-16.693-8.731-3.027-5.058 16.749-4.259 20.283 1.814 8.024 5.469 15.52 10.388 22.032a66.92 66.92 0 0 0 5.278 6.164 67.84 67.84 0 0 0 5.962 5.432c22.178 16.256 50.259 19.218 76.869 17.955l7.915-.654 9.152-1.103a135.57 135.57 0 0 0 9.328-1.972c9.254-2.305 18.258-5.652 26.582-10.372 2.756-1.623 5.441-3.415 8.044-5.392 2.435-1.909 4.72-3.995 6.824-6.28 4.209-4.571 7.695-9.942 10.213-16.261-2.663-.247-5.084.124-7.368.833s-4.434 1.759-6.549 2.885c-4.572 2.06-8.446 5.022-13.287 6.009 1.937 0 3.873-.987 4.841-2.962-4.841 5.184-10.349 9.133-16.289 12.126-2.97 1.498-6.05 2.756-9.213 3.814-8.229 2.538-16.641 4.401-25.136 5.519a143.21 143.21 0 0 1-8.52.866c-2.882.343-5.71.476-8.516.456-8.823-.073-16.569-1.061-25.595-2.587-3.282-.746-6.539-1.65-9.768-2.724z" class="G"/><path d="M248.96 157.688c4.202-3.775 27.683-30.012 31.947-28.471 4.51 1.63 11.606 5.065 3.457 13.391l-5.646 5.742c-1.347 1.438.537-.958-.725.513.061.128 8.601 19.75 6.959 24.359-.751 2.107-1.825 3.977-3.141 5.678-3.965 5.129-8.104 9.959-14.625 11.663-4.703 1.227-7.492-.979-10.992 2.652-2.441 2.533-4.541 4.958-8.291 4.535-7.522-.848-16.767-8.899-18.227-16.426-.771-3.986 1.542-4.569 2.58-7.92 1.851-5.977-1.318-15.508-4.543-20.482-.309-.477-.641-.943-.992-1.398-1.705-2.15-3.666-5.335-2.188-8.333 1.802-1.568 4.096-2.341 6.34-2.336.562.001 1.121.044 1.668.148 12.402 2.359 16.263 16.604 16.419 16.685z" fill-rule="evenodd" fill="#fff"/><path d="M277.993 148.863l-19.713 20.07m23.907-6.774l-14.288 14.007" class="D"/></g><g class="E"><circle cx="281.145" cy="60.208" r="2.083"/><circle cx="274.607" cy="58.957" r="2.083"/><circle cx="268.321" cy="57.814" r="2.083"/><circle cx="280.536" cy="66.218" r="2.083"/><circle cx="274.342" cy="65.277" r="2.083"/><circle cx="268.024" cy="64.135" r="2.083"/><circle cx="274.341" cy="71.266" r="2.083"/><circle cx="268.023" cy="70.124" r="2.083"/><path d="M341.448 291.926c1.279-15.438-3.721-29.438-7.721-43.438-2 17 5 35 .935 51.909-.723 2.188-1.714 4.309-3.068 6.356-5.866 11.734-18.866 15.734-31.866 14.734 11 12 32 6 39.059-6.657-3.059-3.341 4.943-6.384 1.252-8.995.456-2.068.787-4.219 1.03-6.487.233-2.289.35-4.769.379-7.422z"/></g><path d="M102.656 327.622l-1-2.666c-.636-1.636-3.481-2.16-3.857 0-.525 3.016.239 5.918.667 8.896.156 1.081 1.511 1.658 2.46 1.397 1.149-.316 1.552-1.382 1.397-2.46l-.53-2.979c.77-.36 1.269-1.144.863-2.188z" fill="#fff"/><defs ><path id="B" d="M244.75 115.637l6.097 6.098-6.097 6.097-6.097-6.098z"/><path id="C" d="M256.116 104.704l6.035 6.159-6.158 6.035-6.035-6.159z"/><path id="D" d="M273.745 100.469l-.035 3.505-6.675 6.037.035-3.511z"/><path id="E" d="M285.166 89.963l-.035 3.505-6.675 6.037.035-3.512z"/><path id="F" d="M306.471 56.79l-.026 2.586 6.878 7.093.03-2.922"/><path id="G" d="M317.479 68.984l-.025 2.586 6.878 7.093.029-2.922"/><path id="H" d="M283.65 101.593l-.025 2.586 6.878 7.092.029-2.921"/><path id="I" d="M307.902 91.317l-.035 3.505-6.675 6.037.036-3.512z"/></defs></svg>