<?xml version="1.0" encoding="UTF-8"?>
<svg xmlns="http://www.w3.org/2000/svg" xmlns:xlink="http://www.w3.org/1999/xlink" width="89pt" height="70pt" viewBox="0 0 89 70" version="1.1">
<g id="surface1">
<path style=" stroke:none;fill-rule:nonzero;fill:rgb(100%,100%,100%);fill-opacity:1;" d="M 61.757812 8.902344 L 35.851562 25.746094 L 38.488281 54.167969 L 64.097656 37.550781 Z M 51.394531 21.035156 C 51.527344 20.988281 51.664062 20.96875 51.800781 20.96875 C 52.386719 20.96875 52.851562 21.398438 52.933594 22.015625 L 54.046875 30.382812 C 54.132812 31.035156 53.742188 31.667969 53.113281 31.886719 C 52.988281 31.929688 52.859375 31.953125 52.730469 31.953125 C 52.171875 31.953125 51.710938 31.539062 51.628906 30.96875 L 50.457031 22.613281 C 50.363281 21.9375 50.773438 21.246094 51.394531 21.035156 Z M 46.589844 23.359375 C 46.710938 23.324219 46.832031 23.304688 46.953125 23.304688 C 47.546875 23.304688 48.023438 23.742188 48.105469 24.371094 L 49.210938 32.738281 C 49.296875 33.390625 48.894531 34.027344 48.273438 34.230469 C 48.144531 34.269531 48.011719 34.292969 47.882812 34.292969 C 47.308594 34.292969 46.851562 33.882812 46.769531 33.300781 L 45.601562 24.933594 C 45.503906 24.238281 45.929688 23.5625 46.589844 23.359375 Z M 59.039062 35.304688 C 57.601562 36.984375 55.453125 38.589844 52.679688 40.0625 C 49.96875 41.5 47.609375 42.304688 45.640625 42.46875 C 45.429688 42.488281 45.214844 42.5 45.003906 42.5 C 42.890625 42.511719 41.285156 41.601562 40.476562 39.90625 C 40.171875 39.269531 40.464844 38.445312 41.132812 38.074219 C 41.34375 37.957031 41.574219 37.898438 41.804688 37.894531 C 42.285156 37.890625 42.707031 38.152344 42.902344 38.570312 C 43.339844 39.46875 44.0625 39.851562 45.320312 39.84375 C 45.453125 39.84375 45.589844 39.839844 45.730469 39.828125 C 47.253906 39.699219 49.367188 38.945312 51.695312 37.6875 C 54.054688 36.417969 55.980469 34.984375 57.109375 33.652344 C 58.234375 32.273438 58.542969 31.265625 58.144531 30.179688 C 57.886719 29.472656 58.277344 28.5625 59.019531 28.148438 C 59.257812 28.015625 59.511719 27.949219 59.753906 27.945312 C 60.25 27.941406 60.664062 28.234375 60.828125 28.703125 L 60.84375 28.75 C 61.570312 30.828125 60.898438 33.21875 59.039062 35.304688 Z M 59.039062 35.304688 "/>
<path style=" stroke:none;fill-rule:nonzero;fill:rgb(100%,100%,100%);fill-opacity:1;" d="M 39.882812 64.207031 L 57.867188 69.996094 L 90.613281 45.597656 L 73.238281 41.503906 Z M 86.3125 46.492188 L 57.527344 67.933594 L 44.066406 63.605469 L 73.601562 43.5 Z M 86.3125 46.492188 "/>
<path style=" stroke:none;fill-rule:nonzero;fill:rgb(100%,100%,100%);fill-opacity:1;" d="M 52.285156 63.117188 L 75.742188 45.78125 L 73.0625 45.21875 L 49.972656 62.28125 C 50.746094 62.546875 51.515625 62.828125 52.285156 63.117188 Z M 52.285156 63.117188 "/>
<path style=" stroke:none;fill-rule:nonzero;fill:rgb(100%,100%,100%);fill-opacity:1;" d="M 56.488281 65.761719 L 80.21875 47.179688 L 77.605469 46.628906 L 54.355469 64.832031 C 55.070312 65.136719 55.78125 65.445312 56.488281 65.761719 Z M 56.488281 65.761719 "/>
<path style=" stroke:none;fill-rule:nonzero;fill:rgb(100%,100%,100%);fill-opacity:1;" d="M 87.183594 26.765625 C 87.738281 26.183594 89.082031 24.324219 88.835938 20.128906 L 88.832031 20.132812 C 88.828125 19.308594 88.734375 18.523438 88.539062 17.816406 C 88.085938 16.171875 87.164062 15.109375 85.941406 14.828125 C 85.738281 14.78125 85.53125 14.757812 85.320312 14.757812 C 85.292969 14.757812 85.265625 14.761719 85.238281 14.761719 C 85.398438 11.886719 84.9375 10.257812 83.8125 9.6875 C 83 9.273438 82.089844 9.585938 81.59375 10.054688 C 80.714844 10.875 80.449219 12.777344 80.421875 12.992188 C 80.292969 14.015625 80.183594 15.597656 80.085938 17.292969 L 78.210938 18.300781 C 78.210938 18.300781 75.878906 21.816406 79.300781 23.535156 L 79.300781 23.539062 C 78.738281 24.800781 79.53125 25.679688 80.160156 25.929688 C 80.613281 27.578125 81.535156 28.640625 82.757812 28.917969 C 82.960938 28.964844 83.167969 28.992188 83.378906 28.992188 C 84.101562 28.992188 84.824219 28.699219 85.496094 28.1875 C 86.058594 33.277344 85.996094 36.910156 81.882812 37.769531 C 78.644531 38.449219 76.226562 37.097656 73.667969 35.667969 C 71.789062 34.617188 69.851562 33.535156 67.558594 33.269531 L 64.839844 3.511719 L 65.714844 2.902344 L 43.964844 0 L 42.90625 0.777344 C 32.710938 5.589844 20.328125 4.65625 20.203125 4.648438 L 19.851562 4.617188 L 0.0742188 19.914062 L 0 19.902344 L 0.0546875 21.054688 C 0.078125 21.523438 0.527344 31 0.957031 35.851562 L 1.078125 37.867188 L 1.175781 37.859375 L 1.238281 38.304688 L 1.667969 38.523438 C 7.183594 41.324219 14.601562 50.882812 14.945312 51.324219 L 15.230469 55.367188 L 33.863281 62.640625 L 33.910156 62.523438 L 34.636719 62.46875 L 34.691406 62.558594 L 34.851562 62.453125 L 35.675781 62.394531 L 35.644531 61.945312 L 68.257812 40.949219 L 67.730469 35.171875 C 69.503906 35.46875 71.101562 36.359375 72.773438 37.292969 C 75 38.535156 77.285156 39.8125 80.15625 39.8125 C 80.820312 39.8125 81.519531 39.746094 82.253906 39.59375 C 88.542969 38.277344 87.789062 31.914062 87.242188 27.269531 C 87.222656 27.097656 87.203125 26.933594 87.183594 26.765625 Z M 44.453125 1.941406 L 60.730469 4.113281 L 31.253906 24.632812 L 16.289062 22.613281 Z M 20.414062 6.523438 C 22.148438 6.628906 29.632812 6.914062 37.539062 4.714844 L 13.660156 22.246094 L 2.550781 20.339844 Z M 2.933594 37.09375 C 2.890625 36.703125 2.84375 36.230469 2.792969 35.703125 L 2 22.128906 L 11.578125 23.773438 L 11.488281 23.84375 L 13.019531 24.046875 L 14.582031 47.929688 C 11.992188 44.828125 7.128906 39.421875 2.933594 37.09375 Z M 16.984375 54.058594 L 14.886719 24.300781 L 31.195312 26.5 L 33.695312 60.582031 Z M 35.488281 59.839844 L 32.984375 25.6875 L 63.097656 4.722656 L 66.320312 39.988281 Z M 82.25 13.230469 C 82.351562 12.4375 82.65625 11.589844 82.839844 11.421875 C 82.878906 11.386719 82.96875 11.347656 82.980469 11.34375 C 82.988281 11.351562 83.675781 11.882812 83.332031 15.550781 L 81.992188 16.269531 C 82.070312 15.0625 82.15625 13.964844 82.25 13.230469 Z M 83.378906 27.132812 C 83.308594 27.132812 83.234375 27.125 83.167969 27.109375 C 83.117188 27.097656 83.066406 27.078125 83.015625 27.054688 C 82.460938 26.488281 83.015625 25.9375 83.015625 25.933594 L 85.679688 24.488281 L 84.808594 22.851562 C 84.808594 22.851562 84.808594 22.851562 81.757812 24.507812 C 80.476562 24.066406 81.316406 22.96875 81.316406 22.96875 L 85.488281 20.816406 L 84.621094 18.96875 L 80.769531 21.050781 C 80.769531 21.050781 79.84375 21.546875 79.3125 20.984375 L 79.078125 20.410156 C 79.105469 19.914062 79.675781 19.457031 80.21875 19.125 L 80.21875 19.121094 L 80.261719 19.101562 C 80.753906 18.8125 81.214844 18.628906 81.214844 18.628906 L 85.253906 16.621094 C 85.273438 16.621094 85.296875 16.613281 85.320312 16.613281 C 85.390625 16.613281 85.460938 16.621094 85.53125 16.636719 C 86.054688 16.757812 86.503906 17.367188 86.765625 18.3125 C 88.835938 24.542969 84.480469 27.132812 83.378906 27.132812 Z M 83.378906 27.132812 "/>
</g>
</svg>
