<?xml version="1.0" encoding="utf-8"?>
<!-- Generator: Adobe Illustrator 16.0.3, SVG Export Plug-In . SVG Version: 6.00 Build 0)  -->
<!DOCTYPE svg PUBLIC "-//W3C//DTD SVG 1.1//EN" "http://www.w3.org/Graphics/SVG/1.1/DTD/svg11.dtd">
<svg version="1.1" id="Layer_1" xmlns="http://www.w3.org/2000/svg" xmlns:xlink="http://www.w3.org/1999/xlink" x="0px" y="0px"
	 width="94.271px" height="109px" viewBox="14.694 4.723 94.271 109" enable-background="new 14.694 4.723 94.271 109"
	 xml:space="preserve">
<g>
	<path fill="#FFFFFF" d="M34.459,40.547c3.451-5.979,8.243-10.672,14.369-14.076c6.127-3.402,12.983-5.105,20.569-5.105
		c11.155,0,20.515,3.827,28.088,11.458V15.808c-2.138-1.306-4.398-2.446-6.791-3.416C84.079,9.718,76.786,8.38,68.814,8.38
		c-10.211,0-19.451,2.262-27.716,6.783C32.83,19.685,26.364,25.91,21.696,33.835c-4.668,7.928-7.002,16.85-7.002,26.769
		s2.334,18.842,7.002,26.77c0.64,1.086,1.315,2.135,2.021,3.158l10.542-10.233c-3.315-5.888-4.977-12.449-4.977-19.692
		C29.282,53.215,31.007,46.528,34.459,40.547z"/>
	<path fill="#FFFFFF" d="M41.025,106.044c8.216,4.521,17.432,6.783,27.643,6.783c7.973,0,15.292-1.359,21.955-4.084
		c2.42-0.988,4.705-2.15,6.863-3.476V88.241c-7.665,7.729-17.021,11.604-28.088,11.604c-7.586,0-14.442-1.701-20.569-5.107
		c-3.625-2.014-6.772-4.489-9.461-7.407l-10.146,9.849C32.634,100.632,36.566,103.591,41.025,106.044z"/>
	<path fill="#FFFFFF" d="M60.112,55.233l0.209-0.201l9.753,10.048l9.25-8.979l-3.883-3.998l17.268-3.452l-3.583,17.544l-3.747-3.855
		l-15.37,15.038L59.75,67.548L48.184,78.773c4.949,6.229,12.586,10.231,21.163,10.231c14.924,0,27.021-12.101,27.021-27.022
		S84.271,34.961,69.347,34.961c-14.922,0-27.021,12.098-27.021,27.021c0,3.153,0.545,6.179,1.539,8.991l16.234-15.756L60.112,55.233
		z"/>
</g>
</svg>
