<?xml version="1.0" encoding="utf-8"?>
<!-- Generator: Adobe Illustrator 16.0.3, SVG Export Plug-In . SVG Version: 6.00 Build 0)  -->
<!DOCTYPE svg PUBLIC "-//W3C//DTD SVG 1.1//EN" "http://www.w3.org/Graphics/SVG/1.1/DTD/svg11.dtd">
<svg version="1.1" id="Layer_1" xmlns="http://www.w3.org/2000/svg" xmlns:xlink="http://www.w3.org/1999/xlink" x="0px" y="0px"
	 width="518.929px" height="104.446px" viewBox="14.694 8.381 518.929 104.446"
	 enable-background="new 14.694 8.381 518.929 104.446" xml:space="preserve">
<g>
	<path fill="#FFFFFF" d="M34.459,40.547c3.451-5.979,8.243-10.672,14.369-14.076c6.127-3.402,12.983-5.106,20.569-5.106
		c11.155,0,20.515,3.828,28.088,11.458V15.808c-2.138-1.306-4.398-2.446-6.791-3.416c-6.615-2.674-13.908-4.012-21.88-4.012
		c-10.211,0-19.451,2.262-27.716,6.783C32.83,19.685,26.364,25.91,21.696,33.835c-4.668,7.928-7.002,16.85-7.002,26.769
		s2.334,18.842,7.002,26.769c0.64,1.086,1.315,2.135,2.021,3.158l10.542-10.233c-3.315-5.888-4.977-12.449-4.977-19.692
		C29.282,53.215,31.007,46.528,34.459,40.547z"/>
	<path fill="#FFFFFF" d="M41.025,106.044c8.216,4.521,17.432,6.783,27.643,6.783c7.973,0,15.292-1.359,21.955-4.084
		c2.42-0.988,4.705-2.15,6.863-3.475V88.241c-7.665,7.729-17.021,11.604-28.088,11.604c-7.586,0-14.442-1.701-20.569-5.107
		c-3.625-2.014-6.772-4.49-9.461-7.408l-10.146,9.849C32.634,100.632,36.566,103.591,41.025,106.044z"/>
	<path fill="#FFFFFF" d="M60.112,55.233l0.209-0.202l9.753,10.048l9.25-8.979l-3.883-3.998l17.268-3.452l-3.583,17.544l-3.747-3.856
		l-15.37,15.038L59.75,67.548L48.184,78.773c4.949,6.229,12.586,10.231,21.163,10.231c14.924,0,27.021-12.1,27.021-27.022
		S84.271,34.961,69.347,34.961c-14.922,0-27.021,12.098-27.021,27.021c0,3.153,0.545,6.178,1.539,8.991l16.234-15.756L60.112,55.233
		z"/>
</g>
<path fill="#FFFFFF" d="M122.189,105.398c-3.645-3.688-5.467-8.873-5.467-15.558V13.554h12.498V88.8
	c0,3.732,0.888,6.597,2.668,8.593c1.778,1.996,4.447,2.994,8.006,2.994c2.168,0,4.208-0.435,6.119-1.304l0.651,10.285
	c-2.864,1.041-5.858,1.563-8.983,1.563C130.997,110.931,125.834,109.087,122.189,105.398z"/>
<path fill="#FFFFFF" d="M161.495,25.531c-1.607-1.563-2.409-3.47-2.409-5.728c0-2.257,0.801-4.187,2.409-5.793
	c1.604-1.604,3.622-2.408,6.053-2.408c2.429,0,4.446,0.761,6.054,2.277c1.604,1.521,2.408,3.407,2.408,5.663
	c0,2.345-0.804,4.319-2.408,5.924c-1.607,1.607-3.625,2.408-6.054,2.408C165.117,27.874,163.1,27.093,161.495,25.531z M161.3,41.153
	h12.498v68.997H161.3V41.153z"/>
<path fill="#FFFFFF" d="M246.792,91.663l6.769,8.072c-3.039,3.645-6.879,6.424-11.521,8.33c-4.644,1.912-9.829,2.865-15.557,2.865
	c-7.29,0-13.756-1.496-19.397-4.492c-5.643-2.994-10.003-7.181-13.083-12.563c-3.082-5.38-4.622-11.456-4.622-18.225
	c0-6.684,1.498-12.713,4.492-18.096c2.994-5.381,7.115-9.568,12.367-12.563c5.25-2.994,11.173-4.492,17.77-4.492
	c6.249,0,11.932,1.412,17.054,4.232c5.12,2.819,9.199,6.792,12.237,11.911c3.037,5.122,4.599,11.022,4.687,17.705L203.18,85.025
	c1.735,4.772,4.664,8.461,8.787,11.063c4.121,2.604,9.09,3.906,14.906,3.906C235.118,99.995,241.757,97.218,246.792,91.663z
	 M212.358,54.041c-3.43,1.998-6.099,4.797-8.006,8.397c-1.91,3.603-2.864,7.791-2.864,12.563v1.301l44.132-8.331
	c-1.129-5.032-3.645-9.113-7.55-12.236c-3.906-3.125-8.592-4.688-14.06-4.688C219.668,51.047,215.785,52.045,212.358,54.041z"/>
<path fill="#FFFFFF" d="M477.326,41.153v68.997H465.35V99.214c-2.777,3.82-6.295,6.728-10.547,8.724
	c-4.251,1.998-8.938,2.994-14.059,2.994c-6.685,0-12.673-1.476-17.966-4.427c-5.294-2.948-9.438-7.096-12.433-12.434
	s-4.49-11.476-4.49-18.42c0-6.943,1.496-13.062,4.49-18.356c2.993-5.293,7.139-9.416,12.433-12.366
	c5.293-2.95,11.281-4.428,17.966-4.428c4.947,0,9.504,0.936,13.669,2.8c4.166,1.867,7.637,4.621,10.415,8.267V41.153H477.326z
	 M453.633,96.937c3.559-2.039,6.335-4.902,8.332-8.595c1.996-3.687,2.995-7.917,2.995-12.69c0-4.772-0.999-9.004-2.995-12.693
	c-1.997-3.688-4.773-6.528-8.332-8.526c-3.56-1.996-7.508-2.994-11.847-2.994c-4.427,0-8.396,0.998-11.911,2.994
	c-3.516,1.998-6.294,4.839-8.332,8.526c-2.04,3.689-3.059,7.921-3.059,12.693c0,4.773,1.019,9.004,3.059,12.69
	c2.038,3.691,4.816,6.556,8.332,8.595c3.515,2.039,7.484,3.059,11.911,3.059C446.125,99.995,450.073,98.976,453.633,96.937z"/>
<path fill="#FFFFFF" d="M276.361,44.537c2.777-0.694,6.465-1.432,11.065-2.213c4.599-0.781,9.896-1.171,15.882-1.171
	c5.381,0,9.85,0.761,13.409,2.278c3.558,1.519,6.398,3.645,8.526,6.378c2.126,2.733,3.623,6.011,4.49,9.829
	c0.867,3.819,1.304,8.027,1.304,12.628v38.012h-12.106V74.87c0-4.166-0.283-7.724-0.848-10.675c-0.564-2.949-1.497-5.338-2.799-7.16
	c-1.301-1.823-3.039-3.145-5.208-3.971c-2.17-0.824-4.86-1.237-8.07-1.237c-1.303,0-2.647,0.045-4.036,0.131
	c-1.39,0.087-2.714,0.195-3.97,0.325c-1.26,0.13-2.39,0.282-3.386,0.456c-0.999,0.175-1.715,0.305-2.147,0.391v57.149h-12.106
	V44.537z"/>
<path fill="#FFFFFF" d="M363.712,41.841h25.646v10.154h-25.646v31.244c0,3.385,0.261,6.184,0.78,8.396
	c0.521,2.214,1.303,3.95,2.344,5.208c1.042,1.259,2.344,2.148,3.906,2.669s3.384,0.78,5.467,0.78c3.646,0,6.574-0.41,8.788-1.235
	c2.212-0.824,3.752-1.41,4.621-1.759l2.343,10.025c-1.216,0.607-3.342,1.365-6.379,2.277c-3.039,0.909-6.51,1.366-10.414,1.366
	c-4.602,0-8.396-0.586-11.391-1.758c-2.995-1.172-5.403-2.93-7.226-5.272c-1.823-2.343-3.104-5.228-3.842-8.656
	c-0.737-3.428-1.104-7.398-1.104-11.912V22.964l12.105-2.083L363.712,41.841L363.712,41.841z"/>
<path fill="#FFFFFF" d="M520.084,41.153c1.042,0,2.233,0.064,3.579,0.195c1.346,0.13,2.67,0.305,3.972,0.52
	c1.301,0.218,2.494,0.437,3.58,0.651c1.084,0.218,1.887,0.413,2.408,0.585L531.54,53.65c-0.955-0.345-2.539-0.758-4.751-1.237
	c-2.214-0.476-5.06-0.716-8.527-0.716c-2.259,0-4.491,0.24-6.705,0.716c-2.212,0.479-3.667,0.804-4.359,0.978v56.889H495.09v-64.83
	c2.863-1.042,6.42-2.018,10.673-2.929C510.015,41.608,514.789,41.153,520.084,41.153z"/>
</svg>
